<svg width="300" height="200" viewBox="0 0 300 200" fill="none" xmlns="http://www.w3.org/2000/svg">
<g clip-path="url(#clip0_322_2179)">
<rect width="300" height="200" fill="#131416"/>
<rect width="10" height="200" fill="#1A1B1D"/>
<rect width="10" height="200" transform="translate(20)" fill="#1A1B1D"/>
<rect width="10" height="200" transform="translate(40)" fill="#1A1B1D"/>
<rect width="10" height="200" transform="translate(60)" fill="#1A1B1D"/>
<rect width="10" height="200" transform="translate(80)" fill="#1A1B1D"/>
<rect width="10" height="200" transform="translate(100)" fill="#1A1B1D"/>
<rect width="10" height="200" transform="translate(120)" fill="#1A1B1D"/>
<rect width="10" height="200" transform="translate(140)" fill="#1A1B1D"/>
<rect width="10" height="200" transform="translate(160)" fill="#1A1B1D"/>
<rect width="10" height="200" transform="translate(180)" fill="#1A1B1D"/>
<rect width="10" height="200" transform="translate(200)" fill="#1A1B1D"/>
<rect width="10" height="200" transform="translate(220)" fill="#1A1B1D"/>
<rect width="10" height="200" transform="translate(240)" fill="#1A1B1D"/>
<rect width="10" height="200" transform="translate(260)" fill="#1A1B1D"/>
<rect width="10" height="200" transform="translate(280)" fill="#1A1B1D"/>
<path d="M0 181H300V179H0V181Z" fill="#202123" mask="url(#path-1-inside-1_322_2179)"/>
<path d="M20 161H300V159H20V161Z" fill="#202123" mask="url(#path-3-inside-2_322_2179)"/>
<path d="M20 141H300V139H20V141Z" fill="#202123" mask="url(#path-5-inside-3_322_2179)"/>
<path d="M20 121H300V119H20V121Z" fill="#202123" mask="url(#path-7-inside-4_322_2179)"/>
<path d="M20 101H300V99H20V101Z" fill="#202123" mask="url(#path-9-inside-5_322_2179)"/>
<path d="M20 81H300V79H20V81Z" fill="#202123" mask="url(#path-11-inside-6_322_2179)"/>
<path d="M20 61H300V59H20V61Z" fill="#202123" mask="url(#path-13-inside-7_322_2179)"/>
<path d="M20 41H300V39H20V41Z" fill="#202123" mask="url(#path-15-inside-8_322_2179)"/>
<path d="M20 21H300V19H20V21Z" fill="#202123" mask="url(#path-17-inside-9_322_2179)"/>
<path d="M20 1H300V-1H20V1Z" fill="#202123" mask="url(#path-19-inside-10_322_2179)"/>
<path d="M6.18253 187.273V196H5.12571V188.381H5.07457L2.94389 189.795V188.722L5.12571 187.273H6.18253Z" fill="#EBEBF5" fill-opacity="0.18"/>
<path d="M1.0206 165V164.233L3.90128 161.08C4.23935 160.71 4.51776 160.389 4.73651 160.116C4.95526 159.841 5.11719 159.582 5.2223 159.341C5.33026 159.097 5.38423 158.841 5.38423 158.574C5.38423 158.267 5.31037 158.001 5.16264 157.777C5.01776 157.553 4.81889 157.379 4.56605 157.257C4.31321 157.135 4.02912 157.074 3.71378 157.074C3.37855 157.074 3.08594 157.143 2.83594 157.283C2.58878 157.419 2.39702 157.611 2.26065 157.858C2.12713 158.105 2.06037 158.395 2.06037 158.727H1.05469C1.05469 158.216 1.17259 157.767 1.40838 157.381C1.64418 156.994 1.9652 156.693 2.37145 156.477C2.78054 156.261 3.23935 156.153 3.74787 156.153C4.25923 156.153 4.71236 156.261 5.10724 156.477C5.50213 156.693 5.81179 156.984 6.03622 157.351C6.26065 157.717 6.37287 158.125 6.37287 158.574C6.37287 158.895 6.31463 159.209 6.19815 159.516C6.08452 159.82 5.88565 160.159 5.60156 160.534C5.32031 160.906 4.92969 161.361 4.42969 161.898L2.46946 163.994V164.062H6.52628V165H1.0206ZM11.1328 165.119C10.4908 165.119 9.94389 164.945 9.49219 164.595C9.04048 164.243 8.69531 163.733 8.45668 163.065C8.21804 162.395 8.09872 161.585 8.09872 160.636C8.09872 159.693 8.21804 158.888 8.45668 158.22C8.69815 157.55 9.04474 157.038 9.49645 156.686C9.95099 156.331 10.4964 156.153 11.1328 156.153C11.7692 156.153 12.3132 156.331 12.7649 156.686C13.2195 157.038 13.5661 157.55 13.8047 158.22C14.0462 158.888 14.1669 159.693 14.1669 160.636C14.1669 161.585 14.0476 162.395 13.8089 163.065C13.5703 163.733 13.2251 164.243 12.7734 164.595C12.3217 164.945 11.7749 165.119 11.1328 165.119ZM11.1328 164.182C11.7692 164.182 12.2635 163.875 12.6158 163.261C12.968 162.648 13.1442 161.773 13.1442 160.636C13.1442 159.881 13.0632 159.237 12.9013 158.706C12.7422 158.175 12.5121 157.77 12.2109 157.491C11.9126 157.213 11.5533 157.074 11.1328 157.074C10.5021 157.074 10.0092 157.385 9.65412 158.007C9.29901 158.626 9.12145 159.503 9.12145 160.636C9.12145 161.392 9.20099 162.034 9.36009 162.562C9.51918 163.091 9.74787 163.493 10.0462 163.768C10.3473 164.044 10.7095 164.182 11.1328 164.182Z" fill="#EBEBF5" fill-opacity="0.18"/>
<path d="M4.28196 145.119C3.71946 145.119 3.21804 145.023 2.7777 144.83C2.3402 144.636 1.99219 144.368 1.73366 144.024C1.47798 143.678 1.33878 143.276 1.31605 142.818H2.38991C2.41264 143.099 2.50923 143.342 2.67969 143.547C2.85014 143.749 3.07315 143.905 3.34872 144.016C3.62429 144.126 3.92969 144.182 4.26491 144.182C4.63991 144.182 4.9723 144.116 5.26207 143.986C5.55185 143.855 5.77912 143.673 5.94389 143.44C6.10866 143.207 6.19105 142.938 6.19105 142.631C6.19105 142.31 6.11151 142.027 5.95241 141.783C5.79332 141.536 5.56037 141.342 5.25355 141.203C4.94673 141.064 4.57173 140.994 4.12855 140.994H3.42969V140.057H4.12855C4.47514 140.057 4.77912 139.994 5.04048 139.869C5.30469 139.744 5.51065 139.568 5.65838 139.341C5.80895 139.114 5.88423 138.847 5.88423 138.54C5.88423 138.244 5.81889 137.987 5.68821 137.768C5.55753 137.55 5.37287 137.379 5.13423 137.257C4.89844 137.135 4.62003 137.074 4.29901 137.074C3.99787 137.074 3.71378 137.129 3.44673 137.24C3.18253 137.348 2.96662 137.506 2.79901 137.713C2.63139 137.918 2.54048 138.165 2.52628 138.455H1.50355C1.5206 137.997 1.65838 137.597 1.9169 137.253C2.17543 136.906 2.51349 136.636 2.93111 136.443C3.35156 136.25 3.81321 136.153 4.31605 136.153C4.85582 136.153 5.31889 136.263 5.70526 136.482C6.09162 136.697 6.38849 136.983 6.59588 137.338C6.80327 137.693 6.90696 138.077 6.90696 138.489C6.90696 138.98 6.7777 139.399 6.51918 139.746C6.26349 140.092 5.91548 140.332 5.47514 140.466V140.534C6.02628 140.625 6.45668 140.859 6.76634 141.237C7.07599 141.612 7.23082 142.077 7.23082 142.631C7.23082 143.105 7.10156 143.531 6.84304 143.909C6.58736 144.284 6.23793 144.58 5.79474 144.795C5.35156 145.011 4.8473 145.119 4.28196 145.119ZM11.8203 145.119C11.1783 145.119 10.6314 144.945 10.1797 144.595C9.72798 144.243 9.38281 143.733 9.14418 143.065C8.90554 142.395 8.78622 141.585 8.78622 140.636C8.78622 139.693 8.90554 138.888 9.14418 138.22C9.38565 137.55 9.73224 137.038 10.1839 136.686C10.6385 136.331 11.1839 136.153 11.8203 136.153C12.4567 136.153 13.0007 136.331 13.4524 136.686C13.907 137.038 14.2536 137.55 14.4922 138.22C14.7337 138.888 14.8544 139.693 14.8544 140.636C14.8544 141.585 14.7351 142.395 14.4964 143.065C14.2578 143.733 13.9126 144.243 13.4609 144.595C13.0092 144.945 12.4624 145.119 11.8203 145.119ZM11.8203 144.182C12.4567 144.182 12.951 143.875 13.3033 143.261C13.6555 142.648 13.8317 141.773 13.8317 140.636C13.8317 139.881 13.7507 139.237 13.5888 138.706C13.4297 138.175 13.1996 137.77 12.8984 137.491C12.6001 137.213 12.2408 137.074 11.8203 137.074C11.1896 137.074 10.6967 137.385 10.3416 138.007C9.98651 138.626 9.80895 139.503 9.80895 140.636C9.80895 141.392 9.88849 142.034 10.0476 142.562C10.2067 143.091 10.4354 143.493 10.7337 143.768C11.0348 144.044 11.397 144.182 11.8203 144.182Z" fill="#EBEBF5" fill-opacity="0.18"/>
<path d="M1.09925 122.21V121.341L4.93448 115.273H5.56516V116.619H5.13903L2.2413 121.205V121.273H7.40607V122.21H1.09925ZM5.20721 124V121.946V121.541V115.273H6.21289V124H5.20721ZM11.8496 124.119C11.2076 124.119 10.6607 123.945 10.209 123.595C9.75728 123.243 9.41211 122.733 9.17347 122.065C8.93484 121.395 8.81552 120.585 8.81552 119.636C8.81552 118.693 8.93484 117.888 9.17347 117.22C9.41495 116.55 9.76154 116.038 10.2132 115.686C10.6678 115.331 11.2132 115.153 11.8496 115.153C12.486 115.153 13.03 115.331 13.4817 115.686C13.9363 116.038 14.2828 116.55 14.5215 117.22C14.763 117.888 14.8837 118.693 14.8837 119.636C14.8837 120.585 14.7644 121.395 14.5257 122.065C14.2871 122.733 13.9419 123.243 13.4902 123.595C13.0385 123.945 12.4917 124.119 11.8496 124.119ZM11.8496 123.182C12.486 123.182 12.9803 122.875 13.3326 122.261C13.6848 121.648 13.861 120.773 13.861 119.636C13.861 118.881 13.78 118.237 13.6181 117.706C13.459 117.175 13.2289 116.77 12.9277 116.491C12.6294 116.213 12.2701 116.074 11.8496 116.074C11.2189 116.074 10.726 116.385 10.3709 117.007C10.0158 117.626 9.83825 118.503 9.83825 119.636C9.83825 120.392 9.91779 121.034 10.0769 121.562C10.236 122.091 10.4647 122.493 10.763 122.768C11.0641 123.044 11.4263 123.182 11.8496 123.182Z" fill="#EBEBF5" fill-opacity="0.18"/>
<path d="M3.73029 104.119C3.23029 104.119 2.78001 104.02 2.37944 103.821C1.97887 103.622 1.65785 103.349 1.41637 103.003C1.17489 102.656 1.04279 102.261 1.02006 101.818H2.04279C2.08256 102.213 2.26154 102.54 2.57972 102.798C2.90075 103.054 3.28427 103.182 3.73029 103.182C4.08825 103.182 4.40643 103.098 4.68484 102.93C4.96609 102.763 5.18626 102.533 5.34535 102.24C5.50728 101.945 5.58825 101.611 5.58825 101.239C5.58825 100.858 5.50444 100.518 5.33683 100.22C5.17205 99.919 4.94478 99.6818 4.65501 99.5085C4.36523 99.3352 4.03427 99.2472 3.66211 99.2443C3.39506 99.2415 3.12092 99.2827 2.83967 99.3679C2.55842 99.4503 2.32688 99.5568 2.14506 99.6875L1.15643 99.5682L1.68484 95.2727H6.21893V96.2102H2.5712L2.26438 98.7841H2.31552C2.4945 98.642 2.71893 98.5241 2.98881 98.4304C3.2587 98.3366 3.53995 98.2898 3.83256 98.2898C4.36665 98.2898 4.84251 98.4176 5.26012 98.6733C5.68058 98.9261 6.01012 99.2727 6.24876 99.7131C6.49023 100.153 6.61097 100.656 6.61097 101.222C6.61097 101.778 6.48597 102.276 6.23597 102.713C5.98881 103.148 5.6479 103.491 5.21325 103.744C4.77859 103.994 4.28427 104.119 3.73029 104.119ZM11.1504 104.119C10.5083 104.119 9.96147 103.945 9.50977 103.595C9.05806 103.243 8.71289 102.733 8.47425 102.065C8.23562 101.395 8.1163 100.585 8.1163 99.6364C8.1163 98.6932 8.23562 97.8878 8.47425 97.2202C8.71573 96.5497 9.06232 96.0384 9.51403 95.6861C9.96857 95.331 10.514 95.1534 11.1504 95.1534C11.7868 95.1534 12.3308 95.331 12.7825 95.6861C13.237 96.0384 13.5836 96.5497 13.8223 97.2202C14.0637 97.8878 14.1845 98.6932 14.1845 99.6364C14.1845 100.585 14.0652 101.395 13.8265 102.065C13.5879 102.733 13.2427 103.243 12.791 103.595C12.3393 103.945 11.7924 104.119 11.1504 104.119ZM11.1504 103.182C11.7868 103.182 12.2811 102.875 12.6333 102.261C12.9856 101.648 13.1618 100.773 13.1618 99.6364C13.1618 98.8807 13.0808 98.2372 12.9189 97.706C12.7598 97.1747 12.5297 96.7699 12.2285 96.4915C11.9302 96.2131 11.5708 96.0739 11.1504 96.0739C10.5197 96.0739 10.0268 96.3849 9.6717 97.0071C9.31658 97.6264 9.13903 98.5028 9.13903 99.6364C9.13903 100.392 9.21857 101.034 9.37766 101.562C9.53675 102.091 9.76545 102.493 10.0637 102.768C10.3649 103.044 10.7271 103.182 11.1504 103.182Z" fill="#EBEBF5" fill-opacity="0.18"/>
<path d="M3.807 84.1193C3.44904 84.1136 3.09109 84.0455 2.73313 83.9148C2.37518 83.7841 2.04847 83.5639 1.75302 83.2543C1.45756 82.9418 1.22035 82.5199 1.04137 81.9886C0.862393 81.4545 0.772905 80.7841 0.772905 79.9773C0.772905 79.2045 0.845348 78.5199 0.990234 77.9233C1.13512 77.3239 1.34535 76.8196 1.62092 76.4105C1.89648 75.9986 2.22887 75.6861 2.61808 75.473C3.01012 75.2599 3.45188 75.1534 3.94336 75.1534C4.432 75.1534 4.86665 75.2514 5.24734 75.4474C5.63086 75.6406 5.94336 75.9105 6.18484 76.2571C6.42631 76.6037 6.58256 77.0028 6.65359 77.4545H5.61381C5.51722 77.0625 5.32972 76.7372 5.05131 76.4787C4.7729 76.2202 4.40359 76.0909 3.94336 76.0909C3.26722 76.0909 2.73455 76.3849 2.34535 76.973C1.95898 77.5611 1.76438 78.3864 1.76154 79.4489H1.82972C1.98881 79.2074 2.17773 79.0014 2.39648 78.831C2.61808 78.6577 2.86239 78.5241 3.12944 78.4304C3.39648 78.3366 3.67915 78.2898 3.97745 78.2898C4.47745 78.2898 4.93484 78.4148 5.34961 78.6648C5.76438 78.9119 6.09677 79.2543 6.34677 79.6918C6.59677 80.1264 6.72177 80.625 6.72177 81.1875C6.72177 81.7273 6.60103 82.2216 6.35955 82.6705C6.11808 83.1165 5.77859 83.4716 5.34109 83.7358C4.90643 83.9972 4.39506 84.125 3.807 84.1193ZM3.807 83.1818C4.16495 83.1818 4.48597 83.0923 4.77006 82.9134C5.057 82.7344 5.28285 82.4943 5.44762 82.1932C5.61523 81.892 5.69904 81.5568 5.69904 81.1875C5.69904 80.8267 5.61808 80.4986 5.45614 80.2031C5.29705 79.9048 5.07688 79.6676 4.79563 79.4915C4.51722 79.3153 4.19904 79.2273 3.84109 79.2273C3.5712 79.2273 3.31978 79.2812 3.08683 79.3892C2.85387 79.4943 2.64933 79.6392 2.47319 79.8239C2.29989 80.0085 2.16353 80.2202 2.0641 80.4588C1.96467 80.6946 1.91495 80.9432 1.91495 81.2045C1.91495 81.5511 1.99592 81.875 2.15785 82.1761C2.32262 82.4773 2.54705 82.7202 2.83114 82.9048C3.11808 83.0895 3.44336 83.1818 3.807 83.1818ZM11.2441 84.1193C10.6021 84.1193 10.0552 83.9446 9.60352 83.5952C9.15181 83.2429 8.80664 82.733 8.568 82.0653C8.32937 81.3949 8.21005 80.5852 8.21005 79.6364C8.21005 78.6932 8.32937 77.8878 8.568 77.2202C8.80948 76.5497 9.15607 76.0384 9.60778 75.6861C10.0623 75.331 10.6078 75.1534 11.2441 75.1534C11.8805 75.1534 12.4245 75.331 12.8762 75.6861C13.3308 76.0384 13.6774 76.5497 13.916 77.2202C14.1575 77.8878 14.2782 78.6932 14.2782 79.6364C14.2782 80.5852 14.1589 81.3949 13.9203 82.0653C13.6816 82.733 13.3365 83.2429 12.8848 83.5952C12.4331 83.9446 11.8862 84.1193 11.2441 84.1193ZM11.2441 83.1818C11.8805 83.1818 12.3748 82.875 12.7271 82.2614C13.0794 81.6477 13.2555 80.7727 13.2555 79.6364C13.2555 78.8807 13.1745 78.2372 13.0126 77.706C12.8535 77.1747 12.6234 76.7699 12.3223 76.4915C12.024 76.2131 11.6646 76.0739 11.2441 76.0739C10.6135 76.0739 10.1206 76.3849 9.76545 77.0071C9.41033 77.6264 9.23278 78.5028 9.23278 79.6364C9.23278 80.392 9.31232 81.0341 9.47141 81.5625C9.6305 82.0909 9.8592 82.4929 10.1575 82.7685C10.4586 83.044 10.8208 83.1818 11.2441 83.1818Z" fill="#EBEBF5" fill-opacity="0.18"/>
<path d="M1.59215 64L5.49556 56.2784V56.2102H0.995561V55.2727H6.58647V56.2614L2.70011 64H1.59215ZM10.834 64.1193C10.1919 64.1193 9.64506 63.9446 9.19336 63.5952C8.74165 63.2429 8.39648 62.733 8.15785 62.0653C7.91921 61.3949 7.79989 60.5852 7.79989 59.6364C7.79989 58.6932 7.91921 57.8878 8.15785 57.2202C8.39933 56.5497 8.74592 56.0384 9.19762 55.6861C9.65217 55.331 10.1976 55.1534 10.834 55.1534C11.4703 55.1534 12.0144 55.331 12.4661 55.6861C12.9206 56.0384 13.2672 56.5497 13.5059 57.2202C13.7473 57.8878 13.8681 58.6932 13.8681 59.6364C13.8681 60.5852 13.7488 61.3949 13.5101 62.0653C13.2715 62.733 12.9263 63.2429 12.4746 63.5952C12.0229 63.9446 11.476 64.1193 10.834 64.1193ZM10.834 63.1818C11.4703 63.1818 11.9647 62.875 12.3169 62.2614C12.6692 61.6477 12.8453 60.7727 12.8453 59.6364C12.8453 58.8807 12.7644 58.2372 12.6025 57.706C12.4434 57.1747 12.2132 56.7699 11.9121 56.4915C11.6138 56.2131 11.2544 56.0739 10.834 56.0739C10.2033 56.0739 9.7104 56.3849 9.35529 57.0071C9.00018 57.6264 8.82262 58.5028 8.82262 59.6364C8.82262 60.392 8.90217 61.0341 9.06126 61.5625C9.22035 62.0909 9.44904 62.4929 9.74734 62.7685C10.0485 63.044 10.4107 63.1818 10.834 63.1818Z" fill="#EBEBF5" fill-opacity="0.18"/>
<path d="M3.7516 44.1193C3.16637 44.1193 2.64933 44.0156 2.20046 43.8082C1.75444 43.598 1.40643 43.3097 1.15643 42.9432C0.906428 42.5739 0.782848 42.1534 0.785689 41.6818C0.782848 41.3125 0.855291 40.9716 1.00302 40.6591C1.15075 40.3437 1.35245 40.081 1.60813 39.8707C1.86665 39.6577 2.15501 39.5227 2.47319 39.4659V39.4148C2.05558 39.3068 1.72319 39.0724 1.47603 38.7116C1.22887 38.348 1.10671 37.9347 1.10955 37.4716C1.10671 37.0284 1.21893 36.6321 1.4462 36.2827C1.67347 35.9332 1.98597 35.6577 2.3837 35.456C2.78427 35.2543 3.24023 35.1534 3.7516 35.1534C4.25728 35.1534 4.70898 35.2543 5.10671 35.456C5.50444 35.6577 5.81694 35.9332 6.04421 36.2827C6.27433 36.6321 6.3908 37.0284 6.39364 37.4716C6.3908 37.9347 6.26438 38.348 6.01438 38.7116C5.76722 39.0724 5.4391 39.3068 5.03001 39.4148V39.4659C5.34535 39.5227 5.62944 39.6577 5.88228 39.8707C6.13512 40.081 6.33683 40.3437 6.48739 40.6591C6.63796 40.9716 6.71467 41.3125 6.71751 41.6818C6.71467 42.1534 6.58683 42.5739 6.33398 42.9432C6.08398 43.3097 5.73597 43.598 5.28995 43.8082C4.84677 44.0156 4.33398 44.1193 3.7516 44.1193ZM3.7516 43.1818C4.14648 43.1818 4.48739 43.1179 4.77433 42.9901C5.06126 42.8622 5.28285 42.6818 5.4391 42.4489C5.59535 42.2159 5.67489 41.9432 5.67773 41.6307C5.67489 41.3011 5.58967 41.0099 5.42205 40.7571C5.25444 40.5043 5.02575 40.3054 4.73597 40.1605C4.44904 40.0156 4.12092 39.9432 3.7516 39.9432C3.37944 39.9432 3.04705 40.0156 2.75444 40.1605C2.46467 40.3054 2.23597 40.5043 2.06836 40.7571C1.90359 41.0099 1.82262 41.3011 1.82546 41.6307C1.82262 41.9432 1.8979 42.2159 2.05131 42.4489C2.20756 42.6818 2.43058 42.8622 2.72035 42.9901C3.01012 43.1179 3.35387 43.1818 3.7516 43.1818ZM3.7516 39.0398C4.0641 39.0398 4.34109 38.9773 4.58256 38.8523C4.82688 38.7273 5.01864 38.5526 5.15785 38.3281C5.29705 38.1037 5.36808 37.8409 5.37092 37.5398C5.36808 37.2443 5.29847 36.9872 5.16211 36.7685C5.02575 36.5469 4.83683 36.3764 4.59535 36.2571C4.35387 36.1349 4.07262 36.0739 3.7516 36.0739C3.42489 36.0739 3.13938 36.1349 2.89506 36.2571C2.65075 36.3764 2.46183 36.5469 2.3283 36.7685C2.19478 36.9872 2.12944 37.2443 2.13228 37.5398C2.12944 37.8409 2.1962 38.1037 2.33256 38.3281C2.47177 38.5526 2.66353 38.7273 2.90785 38.8523C3.15217 38.9773 3.43342 39.0398 3.7516 39.0398ZM11.1973 44.1193C10.5552 44.1193 10.0083 43.9446 9.55664 43.5952C9.10494 43.2429 8.75977 42.733 8.52113 42.0653C8.28249 41.3949 8.16317 40.5852 8.16317 39.6364C8.16317 38.6932 8.28249 37.8878 8.52113 37.2202C8.76261 36.5497 9.1092 36.0384 9.5609 35.6861C10.0154 35.331 10.5609 35.1534 11.1973 35.1534C11.8336 35.1534 12.3777 35.331 12.8294 35.6861C13.2839 36.0384 13.6305 36.5497 13.8691 37.2202C14.1106 37.8878 14.2314 38.6932 14.2314 39.6364C14.2314 40.5852 14.112 41.3949 13.8734 42.0653C13.6348 42.733 13.2896 43.2429 12.8379 43.5952C12.3862 43.9446 11.8393 44.1193 11.1973 44.1193ZM11.1973 43.1818C11.8336 43.1818 12.3279 42.875 12.6802 42.2614C13.0325 41.6477 13.2086 40.7727 13.2086 39.6364C13.2086 38.8807 13.1277 38.2372 12.9657 37.706C12.8066 37.1747 12.5765 36.7699 12.2754 36.4915C11.9771 36.2131 11.6177 36.0739 11.1973 36.0739C10.5666 36.0739 10.0737 36.3849 9.71857 37.0071C9.36346 37.6264 9.1859 38.5028 9.1859 39.6364C9.1859 40.392 9.26545 41.0341 9.42454 41.5625C9.58363 42.0909 9.81232 42.4929 10.1106 42.7685C10.4118 43.044 10.774 43.1818 11.1973 43.1818Z" fill="#EBEBF5" fill-opacity="0.18"/>
<path d="M3.68768 15.1534C4.04563 15.1562 4.40359 15.2244 4.76154 15.358C5.1195 15.4915 5.4462 15.7131 5.74165 16.0227C6.03711 16.3295 6.27433 16.7486 6.4533 17.2798C6.63228 17.8111 6.72177 18.4773 6.72177 19.2784C6.72177 20.054 6.64791 20.7429 6.50018 21.3452C6.35529 21.9446 6.14506 22.4503 5.8695 22.8622C5.59677 23.2741 5.26438 23.5866 4.87234 23.7997C4.48313 24.0128 4.04279 24.1193 3.55131 24.1193C3.06268 24.1193 2.6266 24.0227 2.24308 23.8295C1.86239 23.6335 1.54989 23.3622 1.30558 23.0156C1.0641 22.6662 0.909268 22.2614 0.841087 21.8011H1.88086C1.97461 22.2017 2.16069 22.5327 2.4391 22.794C2.72035 23.0526 3.09109 23.1818 3.55131 23.1818C4.22461 23.1818 4.75586 22.8878 5.14506 22.2997C5.53711 21.7116 5.73313 20.8807 5.73313 19.8068H5.66495C5.50586 20.0455 5.31694 20.2514 5.09819 20.4247C4.87944 20.598 4.63654 20.7315 4.3695 20.8253C4.10245 20.919 3.81836 20.9659 3.51722 20.9659C3.01722 20.9659 2.55842 20.8423 2.1408 20.5952C1.72603 20.3452 1.39364 20.0028 1.14364 19.5682C0.896484 19.1307 0.772905 18.6307 0.772905 18.0682C0.772905 17.5341 0.892223 17.0455 1.13086 16.6023C1.37234 16.1562 1.7104 15.8011 2.14506 15.5369C2.58256 15.2727 3.09677 15.1449 3.68768 15.1534ZM3.68768 16.0909C3.32972 16.0909 3.00728 16.1804 2.72035 16.3594C2.43626 16.5355 2.2104 16.7741 2.04279 17.0753C1.87802 17.3736 1.79563 17.7045 1.79563 18.0682C1.79563 18.4318 1.87518 18.7628 2.03427 19.0611C2.1962 19.3565 2.41637 19.5923 2.69478 19.7685C2.97603 19.9418 3.29563 20.0284 3.65359 20.0284C3.92347 20.0284 4.17489 19.9759 4.40785 19.8707C4.6408 19.7628 4.84393 19.6165 5.01722 19.4318C5.19336 19.2443 5.33114 19.0327 5.43058 18.7969C5.53001 18.5582 5.57972 18.3097 5.57972 18.0511C5.57972 17.7102 5.49734 17.3906 5.33256 17.0923C5.17063 16.794 4.9462 16.5526 4.65927 16.3679C4.37518 16.1832 4.05131 16.0909 3.68768 16.0909ZM11.2441 24.1193C10.6021 24.1193 10.0552 23.9446 9.60352 23.5952C9.15181 23.2429 8.80664 22.733 8.568 22.0653C8.32937 21.3949 8.21005 20.5852 8.21005 19.6364C8.21005 18.6932 8.32937 17.8878 8.568 17.2202C8.80948 16.5497 9.15607 16.0384 9.60778 15.6861C10.0623 15.331 10.6078 15.1534 11.2441 15.1534C11.8805 15.1534 12.4245 15.331 12.8762 15.6861C13.3308 16.0384 13.6774 16.5497 13.916 17.2202C14.1575 17.8878 14.2782 18.6932 14.2782 19.6364C14.2782 20.5852 14.1589 21.3949 13.9203 22.0653C13.6816 22.733 13.3365 23.2429 12.8848 23.5952C12.4331 23.9446 11.8862 24.1193 11.2441 24.1193ZM11.2441 23.1818C11.8805 23.1818 12.3748 22.875 12.7271 22.2614C13.0794 21.6477 13.2555 20.7727 13.2555 19.6364C13.2555 18.8807 13.1745 18.2372 13.0126 17.706C12.8535 17.1747 12.6234 16.7699 12.3223 16.4915C12.024 16.2131 11.6646 16.0739 11.2441 16.0739C10.6135 16.0739 10.1206 16.3849 9.76545 17.0071C9.41033 17.6264 9.23278 18.5028 9.23278 19.6364C9.23278 20.392 9.31232 21.0341 9.47141 21.5625C9.6305 22.0909 9.8592 22.4929 10.1575 22.7685C10.4586 23.044 10.8208 23.1818 11.2441 23.1818Z" fill="#EBEBF5" fill-opacity="0.18"/>
<path d="M44.9803 196.119C44.4803 196.119 44.03 196.02 43.6294 195.821C43.2289 195.622 42.9078 195.349 42.6664 195.003C42.4249 194.656 42.2928 194.261 42.2701 193.818H43.2928C43.3326 194.213 43.5115 194.54 43.8297 194.798C44.1507 195.054 44.5343 195.182 44.9803 195.182C45.3382 195.182 45.6564 195.098 45.9348 194.93C46.2161 194.763 46.4363 194.533 46.5953 194.24C46.7573 193.945 46.8382 193.611 46.8382 193.239C46.8382 192.858 46.7544 192.518 46.5868 192.22C46.4221 191.919 46.1948 191.682 45.905 191.509C45.6152 191.335 45.2843 191.247 44.9121 191.244C44.6451 191.241 44.3709 191.283 44.0897 191.368C43.8084 191.45 43.5769 191.557 43.3951 191.688L42.4064 191.568L42.9348 187.273H47.4689V188.21H43.8212L43.5144 190.784H43.5655C43.7445 190.642 43.9689 190.524 44.2388 190.43C44.5087 190.337 44.79 190.29 45.0826 190.29C45.6167 190.29 46.0925 190.418 46.5101 190.673C46.9306 190.926 47.2601 191.273 47.4988 191.713C47.7402 192.153 47.861 192.656 47.861 193.222C47.861 193.778 47.736 194.276 47.486 194.713C47.2388 195.148 46.8979 195.491 46.4632 195.744C46.0286 195.994 45.5343 196.119 44.9803 196.119Z" fill="#EBEBF5" fill-opacity="0.18"/>
<path d="M92.4325 187.273V196H91.3757V188.381H91.3246L89.1939 189.795V188.722L91.3757 187.273H92.4325ZM97.7891 196.119C97.147 196.119 96.6001 195.945 96.1484 195.595C95.6967 195.243 95.3516 194.733 95.1129 194.065C94.8743 193.395 94.755 192.585 94.755 191.636C94.755 190.693 94.8743 189.888 95.1129 189.22C95.3544 188.55 95.701 188.038 96.1527 187.686C96.6072 187.331 97.1527 187.153 97.7891 187.153C98.4254 187.153 98.9695 187.331 99.4212 187.686C99.8757 188.038 100.222 188.55 100.461 189.22C100.702 189.888 100.823 190.693 100.823 191.636C100.823 192.585 100.704 193.395 100.465 194.065C100.227 194.733 99.8814 195.243 99.4297 195.595C98.978 195.945 98.4311 196.119 97.7891 196.119ZM97.7891 195.182C98.4254 195.182 98.9197 194.875 99.272 194.261C99.6243 193.648 99.8004 192.773 99.8004 191.636C99.8004 190.881 99.7195 190.237 99.5575 189.706C99.3984 189.175 99.1683 188.77 98.8672 188.491C98.5689 188.213 98.2095 188.074 97.7891 188.074C97.1584 188.074 96.6655 188.385 96.3104 189.007C95.9553 189.626 95.7777 190.503 95.7777 191.636C95.7777 192.392 95.8572 193.034 96.0163 193.562C96.1754 194.091 96.4041 194.493 96.7024 194.768C97.0036 195.044 97.3658 195.182 97.7891 195.182Z" fill="#EBEBF5" fill-opacity="0.18"/>
<path d="M142.532 187.273V196H141.475V188.381H141.424L139.294 189.795V188.722L141.475 187.273H142.532ZM147.769 196.119C147.269 196.119 146.819 196.02 146.419 195.821C146.018 195.622 145.697 195.349 145.455 195.003C145.214 194.656 145.082 194.261 145.059 193.818H146.082C146.122 194.213 146.301 194.54 146.619 194.798C146.94 195.054 147.323 195.182 147.769 195.182C148.127 195.182 148.445 195.098 148.724 194.93C149.005 194.763 149.225 194.533 149.384 194.24C149.546 193.945 149.627 193.611 149.627 193.239C149.627 192.858 149.544 192.518 149.376 192.22C149.211 191.919 148.984 191.682 148.694 191.509C148.404 191.335 148.073 191.247 147.701 191.244C147.434 191.241 147.16 191.283 146.879 191.368C146.597 191.45 146.366 191.557 146.184 191.688L145.195 191.568L145.724 187.273H150.258V188.21H146.61L146.303 190.784H146.355C146.534 190.642 146.758 190.524 147.028 190.43C147.298 190.337 147.579 190.29 147.872 190.29C148.406 190.29 148.882 190.418 149.299 190.673C149.72 190.926 150.049 191.273 150.288 191.713C150.529 192.153 150.65 192.656 150.65 193.222C150.65 193.778 150.525 194.276 150.275 194.713C150.028 195.148 149.687 195.491 149.252 195.744C148.818 195.994 148.323 196.119 147.769 196.119Z" fill="#EBEBF5" fill-opacity="0.18"/>
<path d="M188.021 196V195.233L190.901 192.08C191.239 191.71 191.518 191.389 191.737 191.116C191.955 190.841 192.117 190.582 192.222 190.341C192.33 190.097 192.384 189.841 192.384 189.574C192.384 189.267 192.31 189.001 192.163 188.777C192.018 188.553 191.819 188.379 191.566 188.257C191.313 188.135 191.029 188.074 190.714 188.074C190.379 188.074 190.086 188.143 189.836 188.283C189.589 188.419 189.397 188.611 189.261 188.858C189.127 189.105 189.06 189.395 189.06 189.727H188.055C188.055 189.216 188.173 188.767 188.408 188.381C188.644 187.994 188.965 187.693 189.371 187.477C189.781 187.261 190.239 187.153 190.748 187.153C191.259 187.153 191.712 187.261 192.107 187.477C192.502 187.693 192.812 187.984 193.036 188.351C193.261 188.717 193.373 189.125 193.373 189.574C193.373 189.895 193.315 190.209 193.198 190.516C193.085 190.82 192.886 191.159 192.602 191.534C192.32 191.906 191.93 192.361 191.43 192.898L189.469 194.994V195.062H193.526V196H188.021ZM198.133 196.119C197.491 196.119 196.944 195.945 196.492 195.595C196.04 195.243 195.695 194.733 195.457 194.065C195.218 193.395 195.099 192.585 195.099 191.636C195.099 190.693 195.218 189.888 195.457 189.22C195.698 188.55 196.045 188.038 196.496 187.686C196.951 187.331 197.496 187.153 198.133 187.153C198.769 187.153 199.313 187.331 199.765 187.686C200.219 188.038 200.566 188.55 200.805 189.22C201.046 189.888 201.167 190.693 201.167 191.636C201.167 192.585 201.048 193.395 200.809 194.065C200.57 194.733 200.225 195.243 199.773 195.595C199.322 195.945 198.775 196.119 198.133 196.119ZM198.133 195.182C198.769 195.182 199.263 194.875 199.616 194.261C199.968 193.648 200.144 192.773 200.144 191.636C200.144 190.881 200.063 190.237 199.901 189.706C199.742 189.175 199.512 188.77 199.211 188.491C198.913 188.213 198.553 188.074 198.133 188.074C197.502 188.074 197.009 188.385 196.654 189.007C196.299 189.626 196.121 190.503 196.121 191.636C196.121 192.392 196.201 193.034 196.36 193.562C196.519 194.091 196.748 194.493 197.046 194.768C197.347 195.044 197.71 195.182 198.133 195.182Z" fill="#EBEBF5" fill-opacity="0.18"/>
<path d="M239.12 196V195.233L242.001 192.08C242.339 191.71 242.617 191.389 242.836 191.116C243.055 190.841 243.217 190.582 243.322 190.341C243.43 190.097 243.484 189.841 243.484 189.574C243.484 189.267 243.41 189.001 243.262 188.777C243.117 188.553 242.919 188.379 242.666 188.257C242.413 188.135 242.129 188.074 241.813 188.074C241.478 188.074 241.186 188.143 240.936 188.283C240.688 188.419 240.497 188.611 240.36 188.858C240.227 189.105 240.16 189.395 240.16 189.727H239.154C239.154 189.216 239.272 188.767 239.508 188.381C239.744 187.994 240.065 187.693 240.471 187.477C240.88 187.261 241.339 187.153 241.847 187.153C242.359 187.153 242.812 187.261 243.207 187.477C243.602 187.693 243.911 187.984 244.136 188.351C244.36 188.717 244.472 189.125 244.472 189.574C244.472 189.895 244.414 190.209 244.298 190.516C244.184 190.82 243.985 191.159 243.701 191.534C243.42 191.906 243.029 192.361 242.529 192.898L240.569 194.994V195.062H244.626V196H239.12ZM249.113 196.119C248.613 196.119 248.163 196.02 247.762 195.821C247.362 195.622 247.041 195.349 246.799 195.003C246.558 194.656 246.426 194.261 246.403 193.818H247.426C247.465 194.213 247.644 194.54 247.963 194.798C248.284 195.054 248.667 195.182 249.113 195.182C249.471 195.182 249.789 195.098 250.068 194.93C250.349 194.763 250.569 194.533 250.728 194.24C250.89 193.945 250.971 193.611 250.971 193.239C250.971 192.858 250.887 192.518 250.72 192.22C250.555 191.919 250.328 191.682 250.038 191.509C249.748 191.335 249.417 191.247 249.045 191.244C248.778 191.241 248.504 191.283 248.222 191.368C247.941 191.45 247.71 191.557 247.528 191.688L246.539 191.568L247.068 187.273H251.602V188.21H247.954L247.647 190.784H247.698C247.877 190.642 248.102 190.524 248.372 190.43C248.642 190.337 248.923 190.29 249.215 190.29C249.749 190.29 250.225 190.418 250.643 190.673C251.063 190.926 251.393 191.273 251.632 191.713C251.873 192.153 251.994 192.656 251.994 193.222C251.994 193.778 251.869 194.276 251.619 194.713C251.372 195.148 251.031 195.491 250.596 195.744C250.161 195.994 249.667 196.119 249.113 196.119Z" fill="#EBEBF5" fill-opacity="0.18"/>
</g>
<defs>
<clipPath id="clip0_322_2179">
<rect width="300" height="200" fill="white"/>
</clipPath>
</defs>
</svg>
