<svg width="600" height="200" viewBox="0 0 600 200" fill="none" xmlns="http://www.w3.org/2000/svg">
<rect width="600" height="200" fill="#131416"/>
<rect width="20" height="200" fill="#1A1B1D"/>
<rect width="20" height="200" transform="translate(40)" fill="#1A1B1D"/>
<rect width="20" height="200" transform="translate(80)" fill="#1A1B1D"/>
<rect width="20" height="200" transform="translate(120)" fill="#1A1B1D"/>
<rect width="20" height="200" transform="translate(160)" fill="#1A1B1D"/>
<rect width="20" height="200" transform="translate(200)" fill="#1A1B1D"/>
<rect width="20" height="200" transform="translate(240)" fill="#1A1B1D"/>
<rect width="20" height="200" transform="translate(280)" fill="#1A1B1D"/>
<rect width="20" height="200" transform="translate(320)" fill="#1A1B1D"/>
<rect width="20" height="200" transform="translate(360)" fill="#1A1B1D"/>
<rect width="20" height="200" transform="translate(400)" fill="#1A1B1D"/>
<rect width="20" height="200" transform="translate(440)" fill="#1A1B1D"/>
<rect width="20" height="200" transform="translate(480)" fill="#1A1B1D"/>
<rect width="20" height="200" transform="translate(520)" fill="#1A1B1D"/>
<rect width="20" height="200" transform="translate(560)" fill="#1A1B1D"/>
<path d="M0 181H600V179H0V181Z" fill="#202123" mask="url(#path-1-inside-1_314_1798)"/>
<path d="M20 161H600V159H20V161Z" fill="#202123" mask="url(#path-3-inside-2_314_1798)"/>
<path d="M20 141H600V139H20V141Z" fill="#202123" mask="url(#path-5-inside-3_314_1798)"/>
<path d="M20 121H600V119H20V121Z" fill="#202123" mask="url(#path-7-inside-4_314_1798)"/>
<path d="M20 101H600V99H20V101Z" fill="#202123" mask="url(#path-9-inside-5_314_1798)"/>
<path d="M20 81H600V79H20V81Z" fill="#202123" mask="url(#path-11-inside-6_314_1798)"/>
<path d="M20 61H600V59H20V61Z" fill="#202123" mask="url(#path-13-inside-7_314_1798)"/>
<path d="M20 41H600V39H20V41Z" fill="#202123" mask="url(#path-15-inside-8_314_1798)"/>
<path d="M20 21H600V19H20V21Z" fill="#202123" mask="url(#path-17-inside-9_314_1798)"/>
<path d="M0 1H600V-1H0V1Z" fill="#202123" mask="url(#path-19-inside-10_314_1798)"/>
<path d="M11.1825 185.273V194H10.1257V186.381H10.0746L7.94389 187.795V186.722L10.1257 185.273H11.1825Z" fill="#EBEBF5" fill-opacity="0.18"/>
<path d="M3.5206 164V163.233L6.40128 160.08C6.73935 159.71 7.01776 159.389 7.23651 159.116C7.45526 158.841 7.61719 158.582 7.7223 158.341C7.83026 158.097 7.88423 157.841 7.88423 157.574C7.88423 157.267 7.81037 157.001 7.66264 156.777C7.51776 156.553 7.31889 156.379 7.06605 156.257C6.81321 156.135 6.52912 156.074 6.21378 156.074C5.87855 156.074 5.58594 156.143 5.33594 156.283C5.08878 156.419 4.89702 156.611 4.76065 156.858C4.62713 157.105 4.56037 157.395 4.56037 157.727H3.55469C3.55469 157.216 3.67259 156.767 3.90838 156.381C4.14418 155.994 4.4652 155.693 4.87145 155.477C5.28054 155.261 5.73935 155.153 6.24787 155.153C6.75923 155.153 7.21236 155.261 7.60724 155.477C8.00213 155.693 8.31179 155.984 8.53622 156.351C8.76065 156.717 8.87287 157.125 8.87287 157.574C8.87287 157.895 8.81463 158.209 8.69815 158.516C8.58452 158.82 8.38565 159.159 8.10156 159.534C7.82031 159.906 7.42969 160.361 6.92969 160.898L4.96946 162.994V163.062H9.02628V164H3.5206ZM13.6328 164.119C12.9908 164.119 12.4439 163.945 11.9922 163.595C11.5405 163.243 11.1953 162.733 10.9567 162.065C10.718 161.395 10.5987 160.585 10.5987 159.636C10.5987 158.693 10.718 157.888 10.9567 157.22C11.1982 156.55 11.5447 156.038 11.9964 155.686C12.451 155.331 12.9964 155.153 13.6328 155.153C14.2692 155.153 14.8132 155.331 15.2649 155.686C15.7195 156.038 16.0661 156.55 16.3047 157.22C16.5462 157.888 16.6669 158.693 16.6669 159.636C16.6669 160.585 16.5476 161.395 16.3089 162.065C16.0703 162.733 15.7251 163.243 15.2734 163.595C14.8217 163.945 14.2749 164.119 13.6328 164.119ZM13.6328 163.182C14.2692 163.182 14.7635 162.875 15.1158 162.261C15.468 161.648 15.6442 160.773 15.6442 159.636C15.6442 158.881 15.5632 158.237 15.4013 157.706C15.2422 157.175 15.0121 156.77 14.7109 156.491C14.4126 156.213 14.0533 156.074 13.6328 156.074C13.0021 156.074 12.5092 156.385 12.1541 157.007C11.799 157.626 11.6214 158.503 11.6214 159.636C11.6214 160.392 11.701 161.034 11.8601 161.562C12.0192 162.091 12.2479 162.493 12.5462 162.768C12.8473 163.044 13.2095 163.182 13.6328 163.182Z" fill="#EBEBF5" fill-opacity="0.18"/>
<path d="M6.28196 144.119C5.71946 144.119 5.21804 144.023 4.7777 143.83C4.3402 143.636 3.99219 143.368 3.73366 143.024C3.47798 142.678 3.33878 142.276 3.31605 141.818H4.38991C4.41264 142.099 4.50923 142.342 4.67969 142.547C4.85014 142.749 5.07315 142.905 5.34872 143.016C5.62429 143.126 5.92969 143.182 6.26491 143.182C6.63991 143.182 6.9723 143.116 7.26207 142.986C7.55185 142.855 7.77912 142.673 7.94389 142.44C8.10866 142.207 8.19105 141.938 8.19105 141.631C8.19105 141.31 8.11151 141.027 7.95241 140.783C7.79332 140.536 7.56037 140.342 7.25355 140.203C6.94673 140.064 6.57173 139.994 6.12855 139.994H5.42969V139.057H6.12855C6.47514 139.057 6.77912 138.994 7.04048 138.869C7.30469 138.744 7.51065 138.568 7.65838 138.341C7.80895 138.114 7.88423 137.847 7.88423 137.54C7.88423 137.244 7.81889 136.987 7.68821 136.768C7.55753 136.55 7.37287 136.379 7.13423 136.257C6.89844 136.135 6.62003 136.074 6.29901 136.074C5.99787 136.074 5.71378 136.129 5.44673 136.24C5.18253 136.348 4.96662 136.506 4.79901 136.713C4.63139 136.918 4.54048 137.165 4.52628 137.455H3.50355C3.5206 136.997 3.65838 136.597 3.9169 136.253C4.17543 135.906 4.51349 135.636 4.93111 135.443C5.35156 135.25 5.81321 135.153 6.31605 135.153C6.85582 135.153 7.31889 135.263 7.70526 135.482C8.09162 135.697 8.38849 135.983 8.59588 136.338C8.80327 136.693 8.90696 137.077 8.90696 137.489C8.90696 137.98 8.7777 138.399 8.51918 138.746C8.26349 139.092 7.91548 139.332 7.47514 139.466V139.534C8.02628 139.625 8.45668 139.859 8.76634 140.237C9.07599 140.612 9.23082 141.077 9.23082 141.631C9.23082 142.105 9.10156 142.531 8.84304 142.909C8.58736 143.284 8.23793 143.58 7.79474 143.795C7.35156 144.011 6.8473 144.119 6.28196 144.119ZM13.8203 144.119C13.1783 144.119 12.6314 143.945 12.1797 143.595C11.728 143.243 11.3828 142.733 11.1442 142.065C10.9055 141.395 10.7862 140.585 10.7862 139.636C10.7862 138.693 10.9055 137.888 11.1442 137.22C11.3857 136.55 11.7322 136.038 12.1839 135.686C12.6385 135.331 13.1839 135.153 13.8203 135.153C14.4567 135.153 15.0007 135.331 15.4524 135.686C15.907 136.038 16.2536 136.55 16.4922 137.22C16.7337 137.888 16.8544 138.693 16.8544 139.636C16.8544 140.585 16.7351 141.395 16.4964 142.065C16.2578 142.733 15.9126 143.243 15.4609 143.595C15.0092 143.945 14.4624 144.119 13.8203 144.119ZM13.8203 143.182C14.4567 143.182 14.951 142.875 15.3033 142.261C15.6555 141.648 15.8317 140.773 15.8317 139.636C15.8317 138.881 15.7507 138.237 15.5888 137.706C15.4297 137.175 15.1996 136.77 14.8984 136.491C14.6001 136.213 14.2408 136.074 13.8203 136.074C13.1896 136.074 12.6967 136.385 12.3416 137.007C11.9865 137.626 11.8089 138.503 11.8089 139.636C11.8089 140.392 11.8885 141.034 12.0476 141.562C12.2067 142.091 12.4354 142.493 12.7337 142.768C13.0348 143.044 13.397 143.182 13.8203 143.182Z" fill="#EBEBF5" fill-opacity="0.18"/>
<path d="M3.09925 122.21V121.341L6.93448 115.273H7.56516V116.619H7.13903L4.2413 121.205V121.273H9.40607V122.21H3.09925ZM7.20721 124V121.946V121.541V115.273H8.21289V124H7.20721ZM13.8496 124.119C13.2076 124.119 12.6607 123.945 12.209 123.595C11.7573 123.243 11.4121 122.733 11.1735 122.065C10.9348 121.395 10.8155 120.585 10.8155 119.636C10.8155 118.693 10.9348 117.888 11.1735 117.22C11.415 116.55 11.7615 116.038 12.2132 115.686C12.6678 115.331 13.2132 115.153 13.8496 115.153C14.486 115.153 15.03 115.331 15.4817 115.686C15.9363 116.038 16.2828 116.55 16.5215 117.22C16.763 117.888 16.8837 118.693 16.8837 119.636C16.8837 120.585 16.7644 121.395 16.5257 122.065C16.2871 122.733 15.9419 123.243 15.4902 123.595C15.0385 123.945 14.4917 124.119 13.8496 124.119ZM13.8496 123.182C14.486 123.182 14.9803 122.875 15.3326 122.261C15.6848 121.648 15.861 120.773 15.861 119.636C15.861 118.881 15.78 118.237 15.6181 117.706C15.459 117.175 15.2289 116.77 14.9277 116.491C14.6294 116.213 14.2701 116.074 13.8496 116.074C13.2189 116.074 12.726 116.385 12.3709 117.007C12.0158 117.626 11.8382 118.503 11.8382 119.636C11.8382 120.392 11.9178 121.034 12.0769 121.562C12.236 122.091 12.4647 122.493 12.763 122.768C13.0641 123.044 13.4263 123.182 13.8496 123.182Z" fill="#EBEBF5" fill-opacity="0.18"/>
<path d="M6.23029 104.119C5.73029 104.119 5.28001 104.02 4.87944 103.821C4.47887 103.622 4.15785 103.349 3.91637 103.003C3.67489 102.656 3.54279 102.261 3.52006 101.818H4.54279C4.58256 102.213 4.76154 102.54 5.07972 102.798C5.40075 103.054 5.78427 103.182 6.23029 103.182C6.58825 103.182 6.90643 103.098 7.18484 102.93C7.46609 102.763 7.68626 102.533 7.84535 102.24C8.00728 101.945 8.08825 101.611 8.08825 101.239C8.08825 100.858 8.00444 100.518 7.83683 100.22C7.67205 99.919 7.44478 99.6818 7.15501 99.5085C6.86523 99.3352 6.53427 99.2472 6.16211 99.2443C5.89506 99.2415 5.62092 99.2827 5.33967 99.3679C5.05842 99.4503 4.82688 99.5568 4.64506 99.6875L3.65643 99.5682L4.18484 95.2727H8.71893V96.2102H5.0712L4.76438 98.7841H4.81552C4.9945 98.642 5.21893 98.5241 5.48881 98.4304C5.7587 98.3366 6.03995 98.2898 6.33256 98.2898C6.86665 98.2898 7.34251 98.4176 7.76012 98.6733C8.18058 98.9261 8.51012 99.2727 8.74876 99.7131C8.99023 100.153 9.11097 100.656 9.11097 101.222C9.11097 101.778 8.98597 102.276 8.73597 102.713C8.48881 103.148 8.1479 103.491 7.71325 103.744C7.27859 103.994 6.78427 104.119 6.23029 104.119ZM13.6504 104.119C13.0083 104.119 12.4615 103.945 12.0098 103.595C11.5581 103.243 11.2129 102.733 10.9743 102.065C10.7356 101.395 10.6163 100.585 10.6163 99.6364C10.6163 98.6932 10.7356 97.8878 10.9743 97.2202C11.2157 96.5497 11.5623 96.0384 12.014 95.6861C12.4686 95.331 13.014 95.1534 13.6504 95.1534C14.2868 95.1534 14.8308 95.331 15.2825 95.6861C15.737 96.0384 16.0836 96.5497 16.3223 97.2202C16.5637 97.8878 16.6845 98.6932 16.6845 99.6364C16.6845 100.585 16.5652 101.395 16.3265 102.065C16.0879 102.733 15.7427 103.243 15.291 103.595C14.8393 103.945 14.2924 104.119 13.6504 104.119ZM13.6504 103.182C14.2868 103.182 14.7811 102.875 15.1333 102.261C15.4856 101.648 15.6618 100.773 15.6618 99.6364C15.6618 98.8807 15.5808 98.2372 15.4189 97.706C15.2598 97.1747 15.0297 96.7699 14.7285 96.4915C14.4302 96.2131 14.0708 96.0739 13.6504 96.0739C13.0197 96.0739 12.5268 96.3849 12.1717 97.0071C11.8166 97.6264 11.639 98.5028 11.639 99.6364C11.639 100.392 11.7186 101.034 11.8777 101.562C12.0368 102.091 12.2654 102.493 12.5637 102.768C12.8649 103.044 13.2271 103.182 13.6504 103.182Z" fill="#EBEBF5" fill-opacity="0.18"/>
<path d="M6.307 84.1193C5.94904 84.1136 5.59109 84.0455 5.23313 83.9148C4.87518 83.7841 4.54847 83.5639 4.25302 83.2543C3.95756 82.9418 3.72035 82.5199 3.54137 81.9886C3.36239 81.4545 3.2729 80.7841 3.2729 79.9773C3.2729 79.2045 3.34535 78.5199 3.49023 77.9233C3.63512 77.3239 3.84535 76.8196 4.12092 76.4105C4.39648 75.9986 4.72887 75.6861 5.11808 75.473C5.51012 75.2599 5.95188 75.1534 6.44336 75.1534C6.932 75.1534 7.36665 75.2514 7.74734 75.4474C8.13086 75.6406 8.44336 75.9105 8.68484 76.2571C8.92631 76.6037 9.08256 77.0028 9.15359 77.4545H8.11381C8.01722 77.0625 7.82972 76.7372 7.55131 76.4787C7.2729 76.2202 6.90359 76.0909 6.44336 76.0909C5.76722 76.0909 5.23455 76.3849 4.84535 76.973C4.45898 77.5611 4.26438 78.3864 4.26154 79.4489H4.32972C4.48881 79.2074 4.67773 79.0014 4.89648 78.831C5.11808 78.6577 5.36239 78.5241 5.62944 78.4304C5.89648 78.3366 6.17915 78.2898 6.47745 78.2898C6.97745 78.2898 7.43484 78.4148 7.84961 78.6648C8.26438 78.9119 8.59677 79.2543 8.84677 79.6918C9.09677 80.1264 9.22177 80.625 9.22177 81.1875C9.22177 81.7273 9.10103 82.2216 8.85955 82.6705C8.61808 83.1165 8.27859 83.4716 7.84109 83.7358C7.40643 83.9972 6.89506 84.125 6.307 84.1193ZM6.307 83.1818C6.66495 83.1818 6.98597 83.0923 7.27006 82.9134C7.557 82.7344 7.78285 82.4943 7.94762 82.1932C8.11523 81.892 8.19904 81.5568 8.19904 81.1875C8.19904 80.8267 8.11808 80.4986 7.95614 80.2031C7.79705 79.9048 7.57688 79.6676 7.29563 79.4915C7.01722 79.3153 6.69904 79.2273 6.34109 79.2273C6.0712 79.2273 5.81978 79.2812 5.58683 79.3892C5.35387 79.4943 5.14933 79.6392 4.97319 79.8239C4.79989 80.0085 4.66353 80.2202 4.5641 80.4588C4.46467 80.6946 4.41495 80.9432 4.41495 81.2045C4.41495 81.5511 4.49592 81.875 4.65785 82.1761C4.82262 82.4773 5.04705 82.7202 5.33114 82.9048C5.61808 83.0895 5.94336 83.1818 6.307 83.1818ZM13.7441 84.1193C13.1021 84.1193 12.5552 83.9446 12.1035 83.5952C11.6518 83.2429 11.3066 82.733 11.068 82.0653C10.8294 81.3949 10.71 80.5852 10.71 79.6364C10.71 78.6932 10.8294 77.8878 11.068 77.2202C11.3095 76.5497 11.6561 76.0384 12.1078 75.6861C12.5623 75.331 13.1078 75.1534 13.7441 75.1534C14.3805 75.1534 14.9245 75.331 15.3762 75.6861C15.8308 76.0384 16.1774 76.5497 16.416 77.2202C16.6575 77.8878 16.7782 78.6932 16.7782 79.6364C16.7782 80.5852 16.6589 81.3949 16.4203 82.0653C16.1816 82.733 15.8365 83.2429 15.3848 83.5952C14.9331 83.9446 14.3862 84.1193 13.7441 84.1193ZM13.7441 83.1818C14.3805 83.1818 14.8748 82.875 15.2271 82.2614C15.5794 81.6477 15.7555 80.7727 15.7555 79.6364C15.7555 78.8807 15.6745 78.2372 15.5126 77.706C15.3535 77.1747 15.1234 76.7699 14.8223 76.4915C14.524 76.2131 14.1646 76.0739 13.7441 76.0739C13.1135 76.0739 12.6206 76.3849 12.2654 77.0071C11.9103 77.6264 11.7328 78.5028 11.7328 79.6364C11.7328 80.392 11.8123 81.0341 11.9714 81.5625C12.1305 82.0909 12.3592 82.4929 12.6575 82.7685C12.9586 83.044 13.3208 83.1818 13.7441 83.1818Z" fill="#EBEBF5" fill-opacity="0.18"/>
<path d="M4.09215 64L7.99556 56.2784V56.2102H3.49556V55.2727H9.08647V56.2614L5.20011 64H4.09215ZM13.334 64.1193C12.6919 64.1193 12.1451 63.9446 11.6934 63.5952C11.2417 63.2429 10.8965 62.733 10.6578 62.0653C10.4192 61.3949 10.2999 60.5852 10.2999 59.6364C10.2999 58.6932 10.4192 57.8878 10.6578 57.2202C10.8993 56.5497 11.2459 56.0384 11.6976 55.6861C12.1522 55.331 12.6976 55.1534 13.334 55.1534C13.9703 55.1534 14.5144 55.331 14.9661 55.6861C15.4206 56.0384 15.7672 56.5497 16.0059 57.2202C16.2473 57.8878 16.3681 58.6932 16.3681 59.6364C16.3681 60.5852 16.2488 61.3949 16.0101 62.0653C15.7715 62.733 15.4263 63.2429 14.9746 63.5952C14.5229 63.9446 13.976 64.1193 13.334 64.1193ZM13.334 63.1818C13.9703 63.1818 14.4647 62.875 14.8169 62.2614C15.1692 61.6477 15.3453 60.7727 15.3453 59.6364C15.3453 58.8807 15.2644 58.2372 15.1025 57.706C14.9434 57.1747 14.7132 56.7699 14.4121 56.4915C14.1138 56.2131 13.7544 56.0739 13.334 56.0739C12.7033 56.0739 12.2104 56.3849 11.8553 57.0071C11.5002 57.6264 11.3226 58.5028 11.3226 59.6364C11.3226 60.392 11.4022 61.0341 11.5613 61.5625C11.7203 62.0909 11.949 62.4929 12.2473 62.7685C12.5485 63.044 12.9107 63.1818 13.334 63.1818Z" fill="#EBEBF5" fill-opacity="0.18"/>
<path d="M6.2516 44.1193C5.66637 44.1193 5.14933 44.0156 4.70046 43.8082C4.25444 43.598 3.90643 43.3097 3.65643 42.9432C3.40643 42.5739 3.28285 42.1534 3.28569 41.6818C3.28285 41.3125 3.35529 40.9716 3.50302 40.6591C3.65075 40.3437 3.85245 40.081 4.10813 39.8707C4.36665 39.6577 4.65501 39.5227 4.97319 39.4659V39.4148C4.55558 39.3068 4.22319 39.0724 3.97603 38.7116C3.72887 38.348 3.60671 37.9347 3.60955 37.4716C3.60671 37.0284 3.71893 36.6321 3.9462 36.2827C4.17347 35.9332 4.48597 35.6577 4.8837 35.456C5.28427 35.2543 5.74023 35.1534 6.2516 35.1534C6.75728 35.1534 7.20898 35.2543 7.60671 35.456C8.00444 35.6577 8.31694 35.9332 8.54421 36.2827C8.77433 36.6321 8.8908 37.0284 8.89364 37.4716C8.8908 37.9347 8.76438 38.348 8.51438 38.7116C8.26722 39.0724 7.9391 39.3068 7.53001 39.4148V39.4659C7.84535 39.5227 8.12944 39.6577 8.38228 39.8707C8.63512 40.081 8.83683 40.3437 8.98739 40.6591C9.13796 40.9716 9.21467 41.3125 9.21751 41.6818C9.21467 42.1534 9.08683 42.5739 8.83398 42.9432C8.58398 43.3097 8.23597 43.598 7.78995 43.8082C7.34677 44.0156 6.83398 44.1193 6.2516 44.1193ZM6.2516 43.1818C6.64648 43.1818 6.98739 43.1179 7.27433 42.9901C7.56126 42.8622 7.78285 42.6818 7.9391 42.4489C8.09535 42.2159 8.17489 41.9432 8.17773 41.6307C8.17489 41.3011 8.08967 41.0099 7.92205 40.7571C7.75444 40.5043 7.52575 40.3054 7.23597 40.1605C6.94904 40.0156 6.62092 39.9432 6.2516 39.9432C5.87944 39.9432 5.54705 40.0156 5.25444 40.1605C4.96467 40.3054 4.73597 40.5043 4.56836 40.7571C4.40359 41.0099 4.32262 41.3011 4.32546 41.6307C4.32262 41.9432 4.3979 42.2159 4.55131 42.4489C4.70756 42.6818 4.93058 42.8622 5.22035 42.9901C5.51012 43.1179 5.85387 43.1818 6.2516 43.1818ZM6.2516 39.0398C6.5641 39.0398 6.84109 38.9773 7.08256 38.8523C7.32688 38.7273 7.51864 38.5526 7.65785 38.3281C7.79705 38.1037 7.86808 37.8409 7.87092 37.5398C7.86808 37.2443 7.79847 36.9872 7.66211 36.7685C7.52575 36.5469 7.33683 36.3764 7.09535 36.2571C6.85387 36.1349 6.57262 36.0739 6.2516 36.0739C5.92489 36.0739 5.63938 36.1349 5.39506 36.2571C5.15075 36.3764 4.96183 36.5469 4.8283 36.7685C4.69478 36.9872 4.62944 37.2443 4.63228 37.5398C4.62944 37.8409 4.6962 38.1037 4.83256 38.3281C4.97177 38.5526 5.16353 38.7273 5.40785 38.8523C5.65217 38.9773 5.93342 39.0398 6.2516 39.0398ZM13.6973 44.1193C13.0552 44.1193 12.5083 43.9446 12.0566 43.5952C11.6049 43.2429 11.2598 42.733 11.0211 42.0653C10.7825 41.3949 10.6632 40.5852 10.6632 39.6364C10.6632 38.6932 10.7825 37.8878 11.0211 37.2202C11.2626 36.5497 11.6092 36.0384 12.0609 35.6861C12.5154 35.331 13.0609 35.1534 13.6973 35.1534C14.3336 35.1534 14.8777 35.331 15.3294 35.6861C15.7839 36.0384 16.1305 36.5497 16.3691 37.2202C16.6106 37.8878 16.7314 38.6932 16.7314 39.6364C16.7314 40.5852 16.612 41.3949 16.3734 42.0653C16.1348 42.733 15.7896 43.2429 15.3379 43.5952C14.8862 43.9446 14.3393 44.1193 13.6973 44.1193ZM13.6973 43.1818C14.3336 43.1818 14.8279 42.875 15.1802 42.2614C15.5325 41.6477 15.7086 40.7727 15.7086 39.6364C15.7086 38.8807 15.6277 38.2372 15.4657 37.706C15.3066 37.1747 15.0765 36.7699 14.7754 36.4915C14.4771 36.2131 14.1177 36.0739 13.6973 36.0739C13.0666 36.0739 12.5737 36.3849 12.2186 37.0071C11.8635 37.6264 11.6859 38.5028 11.6859 39.6364C11.6859 40.392 11.7654 41.0341 11.9245 41.5625C12.0836 42.0909 12.3123 42.4929 12.6106 42.7685C12.9118 43.044 13.274 43.1818 13.6973 43.1818Z" fill="#EBEBF5" fill-opacity="0.18"/>
<path d="M6.18768 15.1534C6.54563 15.1562 6.90359 15.2244 7.26154 15.358C7.6195 15.4915 7.9462 15.7131 8.24165 16.0227C8.53711 16.3295 8.77433 16.7486 8.9533 17.2798C9.13228 17.8111 9.22177 18.4773 9.22177 19.2784C9.22177 20.054 9.14791 20.7429 9.00018 21.3452C8.85529 21.9446 8.64506 22.4503 8.3695 22.8622C8.09677 23.2741 7.76438 23.5866 7.37234 23.7997C6.98313 24.0128 6.54279 24.1193 6.05131 24.1193C5.56268 24.1193 5.1266 24.0227 4.74308 23.8295C4.36239 23.6335 4.04989 23.3622 3.80558 23.0156C3.5641 22.6662 3.40927 22.2614 3.34109 21.8011H4.38086C4.47461 22.2017 4.66069 22.5327 4.9391 22.794C5.22035 23.0526 5.59109 23.1818 6.05131 23.1818C6.72461 23.1818 7.25586 22.8878 7.64506 22.2997C8.03711 21.7116 8.23313 20.8807 8.23313 19.8068H8.16495C8.00586 20.0455 7.81694 20.2514 7.59819 20.4247C7.37944 20.598 7.13654 20.7315 6.8695 20.8253C6.60245 20.919 6.31836 20.9659 6.01722 20.9659C5.51722 20.9659 5.05842 20.8423 4.6408 20.5952C4.22603 20.3452 3.89364 20.0028 3.64364 19.5682C3.39648 19.1307 3.2729 18.6307 3.2729 18.0682C3.2729 17.5341 3.39222 17.0455 3.63086 16.6023C3.87234 16.1562 4.2104 15.8011 4.64506 15.5369C5.08256 15.2727 5.59677 15.1449 6.18768 15.1534ZM6.18768 16.0909C5.82972 16.0909 5.50728 16.1804 5.22035 16.3594C4.93626 16.5355 4.7104 16.7741 4.54279 17.0753C4.37802 17.3736 4.29563 17.7045 4.29563 18.0682C4.29563 18.4318 4.37518 18.7628 4.53427 19.0611C4.6962 19.3565 4.91637 19.5923 5.19478 19.7685C5.47603 19.9418 5.79563 20.0284 6.15359 20.0284C6.42347 20.0284 6.67489 19.9759 6.90785 19.8707C7.1408 19.7628 7.34393 19.6165 7.51722 19.4318C7.69336 19.2443 7.83114 19.0327 7.93058 18.7969C8.03001 18.5582 8.07972 18.3097 8.07972 18.0511C8.07972 17.7102 7.99734 17.3906 7.83256 17.0923C7.67063 16.794 7.4462 16.5526 7.15927 16.3679C6.87518 16.1832 6.55131 16.0909 6.18768 16.0909ZM13.7441 24.1193C13.1021 24.1193 12.5552 23.9446 12.1035 23.5952C11.6518 23.2429 11.3066 22.733 11.068 22.0653C10.8294 21.3949 10.71 20.5852 10.71 19.6364C10.71 18.6932 10.8294 17.8878 11.068 17.2202C11.3095 16.5497 11.6561 16.0384 12.1078 15.6861C12.5623 15.331 13.1078 15.1534 13.7441 15.1534C14.3805 15.1534 14.9245 15.331 15.3762 15.6861C15.8308 16.0384 16.1774 16.5497 16.416 17.2202C16.6575 17.8878 16.7782 18.6932 16.7782 19.6364C16.7782 20.5852 16.6589 21.3949 16.4203 22.0653C16.1816 22.733 15.8365 23.2429 15.3848 23.5952C14.9331 23.9446 14.3862 24.1193 13.7441 24.1193ZM13.7441 23.1818C14.3805 23.1818 14.8748 22.875 15.2271 22.2614C15.5794 21.6477 15.7555 20.7727 15.7555 19.6364C15.7555 18.8807 15.6745 18.2372 15.5126 17.706C15.3535 17.1747 15.1234 16.7699 14.8223 16.4915C14.524 16.2131 14.1646 16.0739 13.7441 16.0739C13.1135 16.0739 12.6206 16.3849 12.2654 17.0071C11.9103 17.6264 11.7328 18.5028 11.7328 19.6364C11.7328 20.392 11.8123 21.0341 11.9714 21.5625C12.1305 22.0909 12.3592 22.4929 12.6575 22.7685C12.9586 23.044 13.3208 23.1818 13.7441 23.1818Z" fill="#EBEBF5" fill-opacity="0.18"/>
<path d="M27.2706 194V193.233L30.1513 190.08C30.4893 189.71 30.7678 189.389 30.9865 189.116C31.2053 188.841 31.3672 188.582 31.4723 188.341C31.5803 188.097 31.6342 187.841 31.6342 187.574C31.6342 187.267 31.5604 187.001 31.4126 186.777C31.2678 186.553 31.0689 186.379 30.8161 186.257C30.5632 186.135 30.2791 186.074 29.9638 186.074C29.6286 186.074 29.3359 186.143 29.0859 186.283C28.8388 186.419 28.647 186.611 28.5107 186.858C28.3771 187.105 28.3104 187.395 28.3104 187.727H27.3047C27.3047 187.216 27.4226 186.767 27.6584 186.381C27.8942 185.994 28.2152 185.693 28.6214 185.477C29.0305 185.261 29.4893 185.153 29.9979 185.153C30.5092 185.153 30.9624 185.261 31.3572 185.477C31.7521 185.693 32.0618 185.984 32.2862 186.351C32.5107 186.717 32.6229 187.125 32.6229 187.574C32.6229 187.895 32.5646 188.209 32.4482 188.516C32.3345 188.82 32.1357 189.159 31.8516 189.534C31.5703 189.906 31.1797 190.361 30.6797 190.898L28.7195 192.994V193.062H32.7763V194H27.2706Z" fill="#EBEBF5" fill-opacity="0.18"/>
<path d="M50.032 194.119C49.4695 194.119 48.968 194.023 48.5277 193.83C48.0902 193.636 47.7422 193.368 47.4837 193.024C47.228 192.678 47.0888 192.276 47.0661 191.818H48.1399C48.1626 192.099 48.2592 192.342 48.4297 192.547C48.6001 192.749 48.8232 192.905 49.0987 193.016C49.3743 193.126 49.6797 193.182 50.0149 193.182C50.3899 193.182 50.7223 193.116 51.0121 192.986C51.3018 192.855 51.5291 192.673 51.6939 192.44C51.8587 192.207 51.9411 191.938 51.9411 191.631C51.9411 191.31 51.8615 191.027 51.7024 190.783C51.5433 190.536 51.3104 190.342 51.0036 190.203C50.6967 190.064 50.3217 189.994 49.8786 189.994H49.1797V189.057H49.8786C50.2251 189.057 50.5291 188.994 50.7905 188.869C51.0547 188.744 51.2607 188.568 51.4084 188.341C51.5589 188.114 51.6342 187.847 51.6342 187.54C51.6342 187.244 51.5689 186.987 51.4382 186.768C51.3075 186.55 51.1229 186.379 50.8842 186.257C50.6484 186.135 50.37 186.074 50.049 186.074C49.7479 186.074 49.4638 186.129 49.1967 186.24C48.9325 186.348 48.7166 186.506 48.549 186.713C48.3814 186.918 48.2905 187.165 48.2763 187.455H47.2536C47.2706 186.997 47.4084 186.597 47.6669 186.253C47.9254 185.906 48.2635 185.636 48.6811 185.443C49.1016 185.25 49.5632 185.153 50.0661 185.153C50.6058 185.153 51.0689 185.263 51.4553 185.482C51.8416 185.697 52.1385 185.983 52.3459 186.338C52.5533 186.693 52.657 187.077 52.657 187.489C52.657 187.98 52.5277 188.399 52.2692 188.746C52.0135 189.092 51.6655 189.332 51.2251 189.466V189.534C51.7763 189.625 52.2067 189.859 52.5163 190.237C52.826 190.612 52.9808 191.077 52.9808 191.631C52.9808 192.105 52.8516 192.531 52.593 192.909C52.3374 193.284 51.9879 193.58 51.5447 193.795C51.1016 194.011 50.5973 194.119 50.032 194.119Z" fill="#EBEBF5" fill-opacity="0.18"/>
<path d="M66.8493 192.21V191.341L70.6845 185.273H71.3152V186.619H70.889L67.9913 191.205V191.273H73.1561V192.21H66.8493ZM70.9572 194V191.946V191.541V185.273H71.9629V194H70.9572Z" fill="#EBEBF5" fill-opacity="0.18"/>
<path d="M89.9803 194.119C89.4803 194.119 89.03 194.02 88.6294 193.821C88.2289 193.622 87.9078 193.349 87.6664 193.003C87.4249 192.656 87.2928 192.261 87.2701 191.818H88.2928C88.3326 192.213 88.5115 192.54 88.8297 192.798C89.1507 193.054 89.5343 193.182 89.9803 193.182C90.3382 193.182 90.6564 193.098 90.9348 192.93C91.2161 192.763 91.4363 192.533 91.5953 192.24C91.7573 191.945 91.8382 191.611 91.8382 191.239C91.8382 190.858 91.7544 190.518 91.5868 190.22C91.4221 189.919 91.1948 189.682 90.905 189.509C90.6152 189.335 90.2843 189.247 89.9121 189.244C89.6451 189.241 89.3709 189.283 89.0897 189.368C88.8084 189.45 88.5769 189.557 88.3951 189.688L87.4064 189.568L87.9348 185.273H92.4689V186.21H88.8212L88.5144 188.784H88.5655C88.7445 188.642 88.9689 188.524 89.2388 188.43C89.5087 188.337 89.79 188.29 90.0826 188.29C90.6167 188.29 91.0925 188.418 91.5101 188.673C91.9306 188.926 92.2601 189.273 92.4988 189.713C92.7402 190.153 92.861 190.656 92.861 191.222C92.861 191.778 92.736 192.276 92.486 192.713C92.2388 193.148 91.8979 193.491 91.4632 193.744C91.0286 193.994 90.5343 194.119 89.9803 194.119Z" fill="#EBEBF5" fill-opacity="0.18"/>
<path d="M110.057 194.119C109.699 194.114 109.341 194.045 108.983 193.915C108.625 193.784 108.298 193.564 108.003 193.254C107.708 192.942 107.47 192.52 107.291 191.989C107.112 191.455 107.023 190.784 107.023 189.977C107.023 189.205 107.095 188.52 107.24 187.923C107.385 187.324 107.595 186.82 107.871 186.411C108.146 185.999 108.479 185.686 108.868 185.473C109.26 185.26 109.702 185.153 110.193 185.153C110.682 185.153 111.117 185.251 111.497 185.447C111.881 185.641 112.193 185.911 112.435 186.257C112.676 186.604 112.833 187.003 112.904 187.455H111.864C111.767 187.062 111.58 186.737 111.301 186.479C111.023 186.22 110.654 186.091 110.193 186.091C109.517 186.091 108.985 186.385 108.595 186.973C108.209 187.561 108.014 188.386 108.012 189.449H108.08C108.239 189.207 108.428 189.001 108.646 188.831C108.868 188.658 109.112 188.524 109.379 188.43C109.646 188.337 109.929 188.29 110.227 188.29C110.727 188.29 111.185 188.415 111.6 188.665C112.014 188.912 112.347 189.254 112.597 189.692C112.847 190.126 112.972 190.625 112.972 191.188C112.972 191.727 112.851 192.222 112.61 192.67C112.368 193.116 112.029 193.472 111.591 193.736C111.156 193.997 110.645 194.125 110.057 194.119ZM110.057 193.182C110.415 193.182 110.736 193.092 111.02 192.913C111.307 192.734 111.533 192.494 111.698 192.193C111.865 191.892 111.949 191.557 111.949 191.188C111.949 190.827 111.868 190.499 111.706 190.203C111.547 189.905 111.327 189.668 111.046 189.491C110.767 189.315 110.449 189.227 110.091 189.227C109.821 189.227 109.57 189.281 109.337 189.389C109.104 189.494 108.899 189.639 108.723 189.824C108.55 190.009 108.414 190.22 108.314 190.459C108.215 190.695 108.165 190.943 108.165 191.205C108.165 191.551 108.246 191.875 108.408 192.176C108.573 192.477 108.797 192.72 109.081 192.905C109.368 193.089 109.693 193.182 110.057 193.182Z" fill="#EBEBF5" fill-opacity="0.18"/>
<path d="M127.748 194L131.652 186.278V186.21H127.152V185.273H132.743V186.261L128.856 194H127.748Z" fill="#EBEBF5" fill-opacity="0.18"/>
<path d="M150.002 194.119C149.416 194.119 148.899 194.016 148.45 193.808C148.004 193.598 147.656 193.31 147.406 192.943C147.156 192.574 147.033 192.153 147.036 191.682C147.033 191.312 147.105 190.972 147.253 190.659C147.401 190.344 147.602 190.081 147.858 189.871C148.117 189.658 148.405 189.523 148.723 189.466V189.415C148.306 189.307 147.973 189.072 147.726 188.712C147.479 188.348 147.357 187.935 147.36 187.472C147.357 187.028 147.469 186.632 147.696 186.283C147.923 185.933 148.236 185.658 148.634 185.456C149.034 185.254 149.49 185.153 150.002 185.153C150.507 185.153 150.959 185.254 151.357 185.456C151.754 185.658 152.067 185.933 152.294 186.283C152.524 186.632 152.641 187.028 152.644 187.472C152.641 187.935 152.514 188.348 152.264 188.712C152.017 189.072 151.689 189.307 151.28 189.415V189.466C151.595 189.523 151.879 189.658 152.132 189.871C152.385 190.081 152.587 190.344 152.737 190.659C152.888 190.972 152.965 191.312 152.968 191.682C152.965 192.153 152.837 192.574 152.584 192.943C152.334 193.31 151.986 193.598 151.54 193.808C151.097 194.016 150.584 194.119 150.002 194.119ZM150.002 193.182C150.396 193.182 150.737 193.118 151.024 192.99C151.311 192.862 151.533 192.682 151.689 192.449C151.845 192.216 151.925 191.943 151.928 191.631C151.925 191.301 151.84 191.01 151.672 190.757C151.504 190.504 151.276 190.305 150.986 190.161C150.699 190.016 150.371 189.943 150.002 189.943C149.629 189.943 149.297 190.016 149.004 190.161C148.715 190.305 148.486 190.504 148.318 190.757C148.154 191.01 148.073 191.301 148.075 191.631C148.073 191.943 148.148 192.216 148.301 192.449C148.458 192.682 148.681 192.862 148.97 192.99C149.26 193.118 149.604 193.182 150.002 193.182ZM150.002 189.04C150.314 189.04 150.591 188.977 150.833 188.852C151.077 188.727 151.269 188.553 151.408 188.328C151.547 188.104 151.618 187.841 151.621 187.54C151.618 187.244 151.548 186.987 151.412 186.768C151.276 186.547 151.087 186.376 150.845 186.257C150.604 186.135 150.323 186.074 150.002 186.074C149.675 186.074 149.389 186.135 149.145 186.257C148.901 186.376 148.712 186.547 148.578 186.768C148.445 186.987 148.379 187.244 148.382 187.54C148.379 187.841 148.446 188.104 148.583 188.328C148.722 188.553 148.914 188.727 149.158 188.852C149.402 188.977 149.683 189.04 150.002 189.04Z" fill="#EBEBF5" fill-opacity="0.18"/>
<path d="M169.938 185.153C170.296 185.156 170.654 185.224 171.012 185.358C171.369 185.491 171.696 185.713 171.992 186.023C172.287 186.33 172.524 186.749 172.703 187.28C172.882 187.811 172.972 188.477 172.972 189.278C172.972 190.054 172.898 190.743 172.75 191.345C172.605 191.945 172.395 192.45 172.119 192.862C171.847 193.274 171.514 193.587 171.122 193.8C170.733 194.013 170.293 194.119 169.801 194.119C169.313 194.119 168.877 194.023 168.493 193.83C168.112 193.634 167.8 193.362 167.556 193.016C167.314 192.666 167.159 192.261 167.091 191.801H168.131C168.225 192.202 168.411 192.533 168.689 192.794C168.97 193.053 169.341 193.182 169.801 193.182C170.475 193.182 171.006 192.888 171.395 192.3C171.787 191.712 171.983 190.881 171.983 189.807H171.915C171.756 190.045 171.567 190.251 171.348 190.425C171.129 190.598 170.887 190.732 170.619 190.825C170.352 190.919 170.068 190.966 169.767 190.966C169.267 190.966 168.808 190.842 168.391 190.595C167.976 190.345 167.644 190.003 167.394 189.568C167.146 189.131 167.023 188.631 167.023 188.068C167.023 187.534 167.142 187.045 167.381 186.602C167.622 186.156 167.96 185.801 168.395 185.537C168.833 185.273 169.347 185.145 169.938 185.153ZM169.938 186.091C169.58 186.091 169.257 186.18 168.97 186.359C168.686 186.536 168.46 186.774 168.293 187.075C168.128 187.374 168.046 187.705 168.046 188.068C168.046 188.432 168.125 188.763 168.284 189.061C168.446 189.357 168.666 189.592 168.945 189.768C169.226 189.942 169.546 190.028 169.904 190.028C170.173 190.028 170.425 189.976 170.658 189.871C170.891 189.763 171.094 189.616 171.267 189.432C171.443 189.244 171.581 189.033 171.681 188.797C171.78 188.558 171.83 188.31 171.83 188.051C171.83 187.71 171.747 187.391 171.583 187.092C171.421 186.794 171.196 186.553 170.909 186.368C170.625 186.183 170.301 186.091 169.938 186.091Z" fill="#EBEBF5" fill-opacity="0.18"/>
<path d="M187.433 185.273V194H186.376V186.381H186.325L184.194 187.795V186.722L186.376 185.273H187.433ZM192.789 194.119C192.147 194.119 191.6 193.945 191.148 193.595C190.697 193.243 190.352 192.733 190.113 192.065C189.874 191.395 189.755 190.585 189.755 189.636C189.755 188.693 189.874 187.888 190.113 187.22C190.354 186.55 190.701 186.038 191.153 185.686C191.607 185.331 192.153 185.153 192.789 185.153C193.425 185.153 193.969 185.331 194.421 185.686C194.876 186.038 195.222 186.55 195.461 187.22C195.702 187.888 195.823 188.693 195.823 189.636C195.823 190.585 195.704 191.395 195.465 192.065C195.227 192.733 194.881 193.243 194.43 193.595C193.978 193.945 193.431 194.119 192.789 194.119ZM192.789 193.182C193.425 193.182 193.92 192.875 194.272 192.261C194.624 191.648 194.8 190.773 194.8 189.636C194.8 188.881 194.719 188.237 194.558 187.706C194.398 187.175 194.168 186.77 193.867 186.491C193.569 186.213 193.21 186.074 192.789 186.074C192.158 186.074 191.665 186.385 191.31 187.007C190.955 187.626 190.778 188.503 190.778 189.636C190.778 190.392 190.857 191.034 191.016 191.562C191.175 192.091 191.404 192.493 191.702 192.768C192.004 193.044 192.366 193.182 192.789 193.182Z" fill="#EBEBF5" fill-opacity="0.18"/>
<path d="M208.393 185.273V194H207.337V186.381H207.286L205.155 187.795V186.722L207.337 185.273H208.393ZM213.972 185.273V194H212.915V186.381H212.864L210.733 187.795V186.722L212.915 185.273H213.972Z" fill="#EBEBF5" fill-opacity="0.18"/>
<path d="M227.55 185.273V194H226.493V186.381H226.442L224.311 187.795V186.722L226.493 185.273H227.55ZM230.06 194V193.233L232.94 190.08C233.278 189.71 233.557 189.389 233.776 189.116C233.994 188.841 234.156 188.582 234.261 188.341C234.369 188.097 234.423 187.841 234.423 187.574C234.423 187.267 234.349 187.001 234.202 186.777C234.057 186.553 233.858 186.379 233.605 186.257C233.352 186.135 233.068 186.074 232.753 186.074C232.418 186.074 232.125 186.143 231.875 186.283C231.628 186.419 231.436 186.611 231.3 186.858C231.166 187.105 231.099 187.395 231.099 187.727H230.094C230.094 187.216 230.212 186.767 230.447 186.381C230.683 185.994 231.004 185.693 231.411 185.477C231.82 185.261 232.278 185.153 232.787 185.153C233.298 185.153 233.751 185.261 234.146 185.477C234.541 185.693 234.851 185.984 235.075 186.351C235.3 186.717 235.412 187.125 235.412 187.574C235.412 187.895 235.354 188.209 235.237 188.516C235.124 188.82 234.925 189.159 234.641 189.534C234.359 189.906 233.969 190.361 233.469 190.898L231.509 192.994V193.062H235.565V194H230.06Z" fill="#EBEBF5" fill-opacity="0.18"/>
<path d="M247.362 185.273V194H246.305V186.381H246.254L244.124 187.795V186.722L246.305 185.273H247.362ZM252.821 194.119C252.259 194.119 251.757 194.023 251.317 193.83C250.879 193.636 250.531 193.368 250.273 193.024C250.017 192.678 249.878 192.276 249.855 191.818H250.929C250.952 192.099 251.048 192.342 251.219 192.547C251.389 192.749 251.612 192.905 251.888 193.016C252.163 193.126 252.469 193.182 252.804 193.182C253.179 193.182 253.511 193.116 253.801 192.986C254.091 192.855 254.318 192.673 254.483 192.44C254.648 192.207 254.73 191.938 254.73 191.631C254.73 191.31 254.651 191.027 254.491 190.783C254.332 190.536 254.099 190.342 253.793 190.203C253.486 190.064 253.111 189.994 252.668 189.994H251.969V189.057H252.668C253.014 189.057 253.318 188.994 253.58 188.869C253.844 188.744 254.05 188.568 254.197 188.341C254.348 188.114 254.423 187.847 254.423 187.54C254.423 187.244 254.358 186.987 254.227 186.768C254.097 186.55 253.912 186.379 253.673 186.257C253.438 186.135 253.159 186.074 252.838 186.074C252.537 186.074 252.253 186.129 251.986 186.24C251.722 186.348 251.506 186.506 251.338 186.713C251.17 186.918 251.08 187.165 251.065 187.455H250.043C250.06 186.997 250.197 186.597 250.456 186.253C250.714 185.906 251.053 185.636 251.47 185.443C251.891 185.25 252.352 185.153 252.855 185.153C253.395 185.153 253.858 185.263 254.244 185.482C254.631 185.697 254.928 185.983 255.135 186.338C255.342 186.693 255.446 187.077 255.446 187.489C255.446 187.98 255.317 188.399 255.058 188.746C254.803 189.092 254.455 189.332 254.014 189.466V189.534C254.565 189.625 254.996 189.859 255.305 190.237C255.615 190.612 255.77 191.077 255.77 191.631C255.77 192.105 255.641 192.531 255.382 192.909C255.126 193.284 254.777 193.58 254.334 193.795C253.891 194.011 253.386 194.119 252.821 194.119Z" fill="#EBEBF5" fill-opacity="0.18"/>
<path d="M267.333 185.273V194H266.276V186.381H266.225L264.094 187.795V186.722L266.276 185.273H267.333ZM269.638 192.21V191.341L273.474 185.273H274.104V186.619H273.678L270.78 191.205V191.273H275.945V192.21H269.638ZM273.746 194V191.946V191.541V185.273H274.752V194H273.746Z" fill="#EBEBF5" fill-opacity="0.18"/>
<path d="M287.532 185.273V194H286.475V186.381H286.424L284.294 187.795V186.722L286.475 185.273H287.532ZM292.769 194.119C292.269 194.119 291.819 194.02 291.419 193.821C291.018 193.622 290.697 193.349 290.455 193.003C290.214 192.656 290.082 192.261 290.059 191.818H291.082C291.122 192.213 291.301 192.54 291.619 192.798C291.94 193.054 292.323 193.182 292.769 193.182C293.127 193.182 293.445 193.098 293.724 192.93C294.005 192.763 294.225 192.533 294.384 192.24C294.546 191.945 294.627 191.611 294.627 191.239C294.627 190.858 294.544 190.518 294.376 190.22C294.211 189.919 293.984 189.682 293.694 189.509C293.404 189.335 293.073 189.247 292.701 189.244C292.434 189.241 292.16 189.283 291.879 189.368C291.597 189.45 291.366 189.557 291.184 189.688L290.195 189.568L290.724 185.273H295.258V186.21H291.61L291.303 188.784H291.355C291.534 188.642 291.758 188.524 292.028 188.43C292.298 188.337 292.579 188.29 292.872 188.29C293.406 188.29 293.882 188.418 294.299 188.673C294.72 188.926 295.049 189.273 295.288 189.713C295.529 190.153 295.65 190.656 295.65 191.222C295.65 191.778 295.525 192.276 295.275 192.713C295.028 193.148 294.687 193.491 294.252 193.744C293.818 193.994 293.323 194.119 292.769 194.119Z" fill="#EBEBF5" fill-opacity="0.18"/>
<path d="M307.438 185.273V194H306.382V186.381H306.33L304.2 187.795V186.722L306.382 185.273H307.438ZM312.846 194.119C312.488 194.114 312.13 194.045 311.772 193.915C311.414 193.784 311.088 193.564 310.792 193.254C310.497 192.942 310.259 192.52 310.08 191.989C309.901 191.455 309.812 190.784 309.812 189.977C309.812 189.205 309.884 188.52 310.029 187.923C310.174 187.324 310.384 186.82 310.66 186.411C310.936 185.999 311.268 185.686 311.657 185.473C312.049 185.26 312.491 185.153 312.982 185.153C313.471 185.153 313.906 185.251 314.286 185.447C314.67 185.641 314.982 185.911 315.224 186.257C315.465 186.604 315.622 187.003 315.693 187.455H314.653C314.556 187.062 314.369 186.737 314.09 186.479C313.812 186.22 313.443 186.091 312.982 186.091C312.306 186.091 311.774 186.385 311.384 186.973C310.998 187.561 310.803 188.386 310.801 189.449H310.869C311.028 189.207 311.217 189.001 311.436 188.831C311.657 188.658 311.901 188.524 312.169 188.43C312.436 188.337 312.718 188.29 313.017 188.29C313.517 188.29 313.974 188.415 314.389 188.665C314.803 188.912 315.136 189.254 315.386 189.692C315.636 190.126 315.761 190.625 315.761 191.188C315.761 191.727 315.64 192.222 315.399 192.67C315.157 193.116 314.818 193.472 314.38 193.736C313.945 193.997 313.434 194.125 312.846 194.119ZM312.846 193.182C313.204 193.182 313.525 193.092 313.809 192.913C314.096 192.734 314.322 192.494 314.487 192.193C314.654 191.892 314.738 191.557 314.738 191.188C314.738 190.827 314.657 190.499 314.495 190.203C314.336 189.905 314.116 189.668 313.835 189.491C313.556 189.315 313.238 189.227 312.88 189.227C312.61 189.227 312.359 189.281 312.126 189.389C311.893 189.494 311.688 189.639 311.512 189.824C311.339 190.009 311.203 190.22 311.103 190.459C311.004 190.695 310.954 190.943 310.954 191.205C310.954 191.551 311.035 191.875 311.197 192.176C311.362 192.477 311.586 192.72 311.87 192.905C312.157 193.089 312.482 193.182 312.846 193.182Z" fill="#EBEBF5" fill-opacity="0.18"/>
<path d="M327.755 185.273V194H326.698V186.381H326.647L324.516 187.795V186.722L326.698 185.273H327.755ZM330.537 194L334.441 186.278V186.21H329.941V185.273H335.532V186.261L331.645 194H330.537Z" fill="#EBEBF5" fill-opacity="0.18"/>
<path d="M347.485 185.273V194H346.428V186.381H346.377L344.247 187.795V186.722L346.428 185.273H347.485ZM352.791 194.119C352.205 194.119 351.688 194.016 351.24 193.808C350.794 193.598 350.445 193.31 350.195 192.943C349.945 192.574 349.822 192.153 349.825 191.682C349.822 191.312 349.894 190.972 350.042 190.659C350.19 190.344 350.392 190.081 350.647 189.871C350.906 189.658 351.194 189.523 351.512 189.466V189.415C351.095 189.307 350.762 189.072 350.515 188.712C350.268 188.348 350.146 187.935 350.149 187.472C350.146 187.028 350.258 186.632 350.485 186.283C350.713 185.933 351.025 185.658 351.423 185.456C351.823 185.254 352.279 185.153 352.791 185.153C353.296 185.153 353.748 185.254 354.146 185.456C354.544 185.658 354.856 185.933 355.083 186.283C355.313 186.632 355.43 187.028 355.433 187.472C355.43 187.935 355.303 188.348 355.053 188.712C354.806 189.072 354.478 189.307 354.069 189.415V189.466C354.384 189.523 354.669 189.658 354.921 189.871C355.174 190.081 355.376 190.344 355.526 190.659C355.677 190.972 355.754 191.312 355.757 191.682C355.754 192.153 355.626 192.574 355.373 192.943C355.123 193.31 354.775 193.598 354.329 193.808C353.886 194.016 353.373 194.119 352.791 194.119ZM352.791 193.182C353.186 193.182 353.526 193.118 353.813 192.99C354.1 192.862 354.322 192.682 354.478 192.449C354.634 192.216 354.714 191.943 354.717 191.631C354.714 191.301 354.629 191.01 354.461 190.757C354.294 190.504 354.065 190.305 353.775 190.161C353.488 190.016 353.16 189.943 352.791 189.943C352.419 189.943 352.086 190.016 351.794 190.161C351.504 190.305 351.275 190.504 351.107 190.757C350.943 191.01 350.862 191.301 350.865 191.631C350.862 191.943 350.937 192.216 351.09 192.449C351.247 192.682 351.47 192.862 351.759 192.99C352.049 193.118 352.393 193.182 352.791 193.182ZM352.791 189.04C353.103 189.04 353.38 188.977 353.622 188.852C353.866 188.727 354.058 188.553 354.197 188.328C354.336 188.104 354.407 187.841 354.41 187.54C354.407 187.244 354.338 186.987 354.201 186.768C354.065 186.547 353.876 186.376 353.634 186.257C353.393 186.135 353.112 186.074 352.791 186.074C352.464 186.074 352.178 186.135 351.934 186.257C351.69 186.376 351.501 186.547 351.367 186.768C351.234 186.987 351.169 187.244 351.171 187.54C351.169 187.841 351.235 188.104 351.372 188.328C351.511 188.553 351.703 188.727 351.947 188.852C352.191 188.977 352.472 189.04 352.791 189.04Z" fill="#EBEBF5" fill-opacity="0.18"/>
<path d="M367.438 185.273V194H366.382V186.381H366.33L364.2 187.795V186.722L366.382 185.273H367.438ZM372.727 185.153C373.085 185.156 373.443 185.224 373.801 185.358C374.159 185.491 374.485 185.713 374.781 186.023C375.076 186.33 375.313 186.749 375.492 187.28C375.671 187.811 375.761 188.477 375.761 189.278C375.761 190.054 375.687 190.743 375.539 191.345C375.394 191.945 375.184 192.45 374.909 192.862C374.636 193.274 374.303 193.587 373.911 193.8C373.522 194.013 373.082 194.119 372.59 194.119C372.102 194.119 371.666 194.023 371.282 193.83C370.901 193.634 370.589 193.362 370.345 193.016C370.103 192.666 369.948 192.261 369.88 191.801H370.92C371.014 192.202 371.2 192.533 371.478 192.794C371.759 193.053 372.13 193.182 372.59 193.182C373.264 193.182 373.795 192.888 374.184 192.3C374.576 191.712 374.772 190.881 374.772 189.807H374.704C374.545 190.045 374.356 190.251 374.137 190.425C373.919 190.598 373.676 190.732 373.409 190.825C373.142 190.919 372.857 190.966 372.556 190.966C372.056 190.966 371.597 190.842 371.18 190.595C370.765 190.345 370.433 190.003 370.183 189.568C369.936 189.131 369.812 188.631 369.812 188.068C369.812 187.534 369.931 187.045 370.17 186.602C370.411 186.156 370.749 185.801 371.184 185.537C371.622 185.273 372.136 185.145 372.727 185.153ZM372.727 186.091C372.369 186.091 372.046 186.18 371.759 186.359C371.475 186.536 371.249 186.774 371.082 187.075C370.917 187.374 370.835 187.705 370.835 188.068C370.835 188.432 370.914 188.763 371.073 189.061C371.235 189.357 371.455 189.592 371.734 189.768C372.015 189.942 372.335 190.028 372.693 190.028C372.963 190.028 373.214 189.976 373.447 189.871C373.68 189.763 373.883 189.616 374.056 189.432C374.232 189.244 374.37 189.033 374.47 188.797C374.569 188.558 374.619 188.31 374.619 188.051C374.619 187.71 374.536 187.391 374.372 187.092C374.21 186.794 373.985 186.553 373.698 186.368C373.414 186.183 373.09 186.091 372.727 186.091Z" fill="#EBEBF5" fill-opacity="0.18"/>
<path d="M383.521 194V193.233L386.401 190.08C386.739 189.71 387.018 189.389 387.237 189.116C387.455 188.841 387.617 188.582 387.722 188.341C387.83 188.097 387.884 187.841 387.884 187.574C387.884 187.267 387.81 187.001 387.663 186.777C387.518 186.553 387.319 186.379 387.066 186.257C386.813 186.135 386.529 186.074 386.214 186.074C385.879 186.074 385.586 186.143 385.336 186.283C385.089 186.419 384.897 186.611 384.761 186.858C384.627 187.105 384.56 187.395 384.56 187.727H383.555C383.555 187.216 383.673 186.767 383.908 186.381C384.144 185.994 384.465 185.693 384.871 185.477C385.281 185.261 385.739 185.153 386.248 185.153C386.759 185.153 387.212 185.261 387.607 185.477C388.002 185.693 388.312 185.984 388.536 186.351C388.761 186.717 388.873 187.125 388.873 187.574C388.873 187.895 388.815 188.209 388.698 188.516C388.585 188.82 388.386 189.159 388.102 189.534C387.82 189.906 387.43 190.361 386.93 190.898L384.969 192.994V193.062H389.026V194H383.521ZM393.633 194.119C392.991 194.119 392.444 193.945 391.992 193.595C391.54 193.243 391.195 192.733 390.957 192.065C390.718 191.395 390.599 190.585 390.599 189.636C390.599 188.693 390.718 187.888 390.957 187.22C391.198 186.55 391.545 186.038 391.996 185.686C392.451 185.331 392.996 185.153 393.633 185.153C394.269 185.153 394.813 185.331 395.265 185.686C395.719 186.038 396.066 186.55 396.305 187.22C396.546 187.888 396.667 188.693 396.667 189.636C396.667 190.585 396.548 191.395 396.309 192.065C396.07 192.733 395.725 193.243 395.273 193.595C394.822 193.945 394.275 194.119 393.633 194.119ZM393.633 193.182C394.269 193.182 394.763 192.875 395.116 192.261C395.468 191.648 395.644 190.773 395.644 189.636C395.644 188.881 395.563 188.237 395.401 187.706C395.242 187.175 395.012 186.77 394.711 186.491C394.413 186.213 394.053 186.074 393.633 186.074C393.002 186.074 392.509 186.385 392.154 187.007C391.799 187.626 391.621 188.503 391.621 189.636C391.621 190.392 391.701 191.034 391.86 191.562C392.019 192.091 392.248 192.493 392.546 192.768C392.847 193.044 393.21 193.182 393.633 193.182Z" fill="#EBEBF5" fill-opacity="0.18"/>
<path d="M404.482 194V193.233L407.362 190.08C407.7 189.71 407.979 189.389 408.197 189.116C408.416 188.841 408.578 188.582 408.683 188.341C408.791 188.097 408.845 187.841 408.845 187.574C408.845 187.267 408.771 187.001 408.624 186.777C408.479 186.553 408.28 186.379 408.027 186.257C407.774 186.135 407.49 186.074 407.175 186.074C406.839 186.074 406.547 186.143 406.297 186.283C406.05 186.419 405.858 186.611 405.722 186.858C405.588 187.105 405.521 187.395 405.521 187.727H404.516C404.516 187.216 404.634 186.767 404.869 186.381C405.105 185.994 405.426 185.693 405.832 185.477C406.241 185.261 406.7 185.153 407.209 185.153C407.72 185.153 408.173 185.261 408.568 185.477C408.963 185.693 409.273 185.984 409.497 186.351C409.722 186.717 409.834 187.125 409.834 187.574C409.834 187.895 409.776 188.209 409.659 188.516C409.545 188.82 409.347 189.159 409.062 189.534C408.781 189.906 408.391 190.361 407.891 190.898L405.93 192.994V193.062H409.987V194H404.482ZM414.815 185.273V194H413.759V186.381H413.707L411.577 187.795V186.722L413.759 185.273H414.815Z" fill="#EBEBF5" fill-opacity="0.18"/>
<path d="M423.638 194V193.233L426.518 190.08C426.857 189.71 427.135 189.389 427.354 189.116C427.572 188.841 427.734 188.582 427.839 188.341C427.947 188.097 428.001 187.841 428.001 187.574C428.001 187.267 427.928 187.001 427.78 186.777C427.635 186.553 427.436 186.379 427.183 186.257C426.93 186.135 426.646 186.074 426.331 186.074C425.996 186.074 425.703 186.143 425.453 186.283C425.206 186.419 425.014 186.611 424.878 186.858C424.744 187.105 424.678 187.395 424.678 187.727H423.672C423.672 187.216 423.79 186.767 424.026 186.381C424.261 185.994 424.582 185.693 424.989 185.477C425.398 185.261 425.857 185.153 426.365 185.153C426.876 185.153 427.33 185.261 427.724 185.477C428.119 185.693 428.429 185.984 428.653 186.351C428.878 186.717 428.99 187.125 428.99 187.574C428.99 187.895 428.932 188.209 428.815 188.516C428.702 188.82 428.503 189.159 428.219 189.534C427.938 189.906 427.547 190.361 427.047 190.898L425.087 192.994V193.062H429.143V194H423.638ZM430.903 194V193.233L433.784 190.08C434.122 189.71 434.401 189.389 434.619 189.116C434.838 188.841 435 188.582 435.105 188.341C435.213 188.097 435.267 187.841 435.267 187.574C435.267 187.267 435.193 187.001 435.045 186.777C434.901 186.553 434.702 186.379 434.449 186.257C434.196 186.135 433.912 186.074 433.597 186.074C433.261 186.074 432.969 186.143 432.719 186.283C432.472 186.419 432.28 186.611 432.143 186.858C432.01 187.105 431.943 187.395 431.943 187.727H430.938C430.938 187.216 431.055 186.767 431.291 186.381C431.527 185.994 431.848 185.693 432.254 185.477C432.663 185.261 433.122 185.153 433.631 185.153C434.142 185.153 434.595 185.261 434.99 185.477C435.385 185.693 435.695 185.984 435.919 186.351C436.143 186.717 436.256 187.125 436.256 187.574C436.256 187.895 436.197 188.209 436.081 188.516C435.967 188.82 435.768 189.159 435.484 189.534C435.203 189.906 434.812 190.361 434.312 190.898L432.352 192.994V193.062H436.409V194H430.903Z" fill="#EBEBF5" fill-opacity="0.18"/>
<path d="M443.45 194V193.233L446.331 190.08C446.669 189.71 446.947 189.389 447.166 189.116C447.385 188.841 447.547 188.582 447.652 188.341C447.76 188.097 447.814 187.841 447.814 187.574C447.814 187.267 447.74 187.001 447.592 186.777C447.447 186.553 447.249 186.379 446.996 186.257C446.743 186.135 446.459 186.074 446.143 186.074C445.808 186.074 445.516 186.143 445.266 186.283C445.018 186.419 444.827 186.611 444.69 186.858C444.557 187.105 444.49 187.395 444.49 187.727H443.484C443.484 187.216 443.602 186.767 443.838 186.381C444.074 185.994 444.395 185.693 444.801 185.477C445.21 185.261 445.669 185.153 446.178 185.153C446.689 185.153 447.142 185.261 447.537 185.477C447.932 185.693 448.241 185.984 448.466 186.351C448.69 186.717 448.803 187.125 448.803 187.574C448.803 187.895 448.744 188.209 448.628 188.516C448.514 188.82 448.315 189.159 448.031 189.534C447.75 189.906 447.359 190.361 446.859 190.898L444.899 192.994V193.062H448.956V194H443.45ZM453.665 194.119C453.102 194.119 452.601 194.023 452.161 193.83C451.723 193.636 451.375 193.368 451.116 193.024C450.861 192.678 450.722 192.276 450.699 191.818H451.773C451.795 192.099 451.892 192.342 452.062 192.547C452.233 192.749 452.456 192.905 452.732 193.016C453.007 193.126 453.313 193.182 453.648 193.182C454.023 193.182 454.355 193.116 454.645 192.986C454.935 192.855 455.162 192.673 455.327 192.44C455.491 192.207 455.574 191.938 455.574 191.631C455.574 191.31 455.494 191.027 455.335 190.783C455.176 190.536 454.943 190.342 454.636 190.203C454.33 190.064 453.955 189.994 453.511 189.994H452.812V189.057H453.511C453.858 189.057 454.162 188.994 454.423 188.869C454.688 188.744 454.893 188.568 455.041 188.341C455.192 188.114 455.267 187.847 455.267 187.54C455.267 187.244 455.202 186.987 455.071 186.768C454.94 186.55 454.756 186.379 454.517 186.257C454.281 186.135 454.003 186.074 453.682 186.074C453.381 186.074 453.097 186.129 452.83 186.24C452.565 186.348 452.349 186.506 452.182 186.713C452.014 186.918 451.923 187.165 451.909 187.455H450.886C450.903 186.997 451.041 186.597 451.3 186.253C451.558 185.906 451.896 185.636 452.314 185.443C452.734 185.25 453.196 185.153 453.699 185.153C454.239 185.153 454.702 185.263 455.088 185.482C455.474 185.697 455.771 185.983 455.979 186.338C456.186 186.693 456.29 187.077 456.29 187.489C456.29 187.98 456.161 188.399 455.902 188.746C455.646 189.092 455.298 189.332 454.858 189.466V189.534C455.409 189.625 455.839 189.859 456.149 190.237C456.459 190.612 456.614 191.077 456.614 191.631C456.614 192.105 456.484 192.531 456.226 192.909C455.97 193.284 455.621 193.58 455.178 193.795C454.734 194.011 454.23 194.119 453.665 194.119Z" fill="#EBEBF5" fill-opacity="0.18"/>
<path d="M463.515 194V193.233L466.395 190.08C466.733 189.71 467.012 189.389 467.231 189.116C467.449 188.841 467.611 188.582 467.716 188.341C467.824 188.097 467.878 187.841 467.878 187.574C467.878 187.267 467.805 187.001 467.657 186.777C467.512 186.553 467.313 186.379 467.06 186.257C466.807 186.135 466.523 186.074 466.208 186.074C465.873 186.074 465.58 186.143 465.33 186.283C465.083 186.419 464.891 186.611 464.755 186.858C464.621 187.105 464.555 187.395 464.555 187.727H463.549C463.549 187.216 463.667 186.767 463.903 186.381C464.138 185.994 464.459 185.693 464.866 185.477C465.275 185.261 465.733 185.153 466.242 185.153C466.753 185.153 467.206 185.261 467.601 185.477C467.996 185.693 468.306 185.984 468.53 186.351C468.755 186.717 468.867 187.125 468.867 187.574C468.867 187.895 468.809 188.209 468.692 188.516C468.579 188.82 468.38 189.159 468.096 189.534C467.814 189.906 467.424 190.361 466.924 190.898L464.964 192.994V193.062H469.02V194H463.515ZM470.388 192.21V191.341L474.224 185.273H474.854V186.619H474.428L471.53 191.205V191.273H476.695V192.21H470.388ZM474.496 194V191.946V191.541V185.273H475.502V194H474.496Z" fill="#EBEBF5" fill-opacity="0.18"/>
<path d="M483.62 194V193.233L486.501 190.08C486.839 189.71 487.117 189.389 487.336 189.116C487.555 188.841 487.717 188.582 487.822 188.341C487.93 188.097 487.984 187.841 487.984 187.574C487.984 187.267 487.91 187.001 487.762 186.777C487.617 186.553 487.419 186.379 487.166 186.257C486.913 186.135 486.629 186.074 486.313 186.074C485.978 186.074 485.686 186.143 485.436 186.283C485.188 186.419 484.997 186.611 484.86 186.858C484.727 187.105 484.66 187.395 484.66 187.727H483.654C483.654 187.216 483.772 186.767 484.008 186.381C484.244 185.994 484.565 185.693 484.971 185.477C485.38 185.261 485.839 185.153 486.347 185.153C486.859 185.153 487.312 185.261 487.707 185.477C488.102 185.693 488.411 185.984 488.636 186.351C488.86 186.717 488.972 187.125 488.972 187.574C488.972 187.895 488.914 188.209 488.798 188.516C488.684 188.82 488.485 189.159 488.201 189.534C487.92 189.906 487.529 190.361 487.029 190.898L485.069 192.994V193.062H489.126V194H483.62ZM493.613 194.119C493.113 194.119 492.663 194.02 492.262 193.821C491.862 193.622 491.541 193.349 491.299 193.003C491.058 192.656 490.926 192.261 490.903 191.818H491.926C491.965 192.213 492.144 192.54 492.463 192.798C492.784 193.054 493.167 193.182 493.613 193.182C493.971 193.182 494.289 193.098 494.568 192.93C494.849 192.763 495.069 192.533 495.228 192.24C495.39 191.945 495.471 191.611 495.471 191.239C495.471 190.858 495.387 190.518 495.22 190.22C495.055 189.919 494.828 189.682 494.538 189.509C494.248 189.335 493.917 189.247 493.545 189.244C493.278 189.241 493.004 189.283 492.722 189.368C492.441 189.45 492.21 189.557 492.028 189.688L491.039 189.568L491.568 185.273H496.102V186.21H492.454L492.147 188.784H492.198C492.377 188.642 492.602 188.524 492.872 188.43C493.142 188.337 493.423 188.29 493.715 188.29C494.249 188.29 494.725 188.418 495.143 188.673C495.563 188.926 495.893 189.273 496.132 189.713C496.373 190.153 496.494 190.656 496.494 191.222C496.494 191.778 496.369 192.276 496.119 192.713C495.872 193.148 495.531 193.491 495.096 193.744C494.661 193.994 494.167 194.119 493.613 194.119Z" fill="#EBEBF5" fill-opacity="0.18"/>
<path d="M503.526 194V193.233L506.407 190.08C506.745 189.71 507.024 189.389 507.242 189.116C507.461 188.841 507.623 188.582 507.728 188.341C507.836 188.097 507.89 187.841 507.89 187.574C507.89 187.267 507.816 187.001 507.669 186.777C507.524 186.553 507.325 186.379 507.072 186.257C506.819 186.135 506.535 186.074 506.22 186.074C505.884 186.074 505.592 186.143 505.342 186.283C505.095 186.419 504.903 186.611 504.767 186.858C504.633 187.105 504.566 187.395 504.566 187.727H503.561C503.561 187.216 503.678 186.767 503.914 186.381C504.15 185.994 504.471 185.693 504.877 185.477C505.286 185.261 505.745 185.153 506.254 185.153C506.765 185.153 507.218 185.261 507.613 185.477C508.008 185.693 508.318 185.984 508.542 186.351C508.767 186.717 508.879 187.125 508.879 187.574C508.879 187.895 508.82 188.209 508.704 188.516C508.59 188.82 508.392 189.159 508.107 189.534C507.826 189.906 507.436 190.361 506.936 190.898L504.975 192.994V193.062H509.032V194H503.526ZM513.69 194.119C513.332 194.114 512.974 194.045 512.616 193.915C512.258 193.784 511.931 193.564 511.636 193.254C511.34 192.942 511.103 192.52 510.924 191.989C510.745 191.455 510.656 190.784 510.656 189.977C510.656 189.205 510.728 188.52 510.873 187.923C511.018 187.324 511.228 186.82 511.504 186.411C511.779 185.999 512.112 185.686 512.501 185.473C512.893 185.26 513.335 185.153 513.826 185.153C514.315 185.153 514.749 185.251 515.13 185.447C515.514 185.641 515.826 185.911 516.068 186.257C516.309 186.604 516.465 187.003 516.536 187.455H515.497C515.4 187.062 515.213 186.737 514.934 186.479C514.656 186.22 514.286 186.091 513.826 186.091C513.15 186.091 512.617 186.385 512.228 186.973C511.842 187.561 511.647 188.386 511.644 189.449H511.713C511.872 189.207 512.061 189.001 512.279 188.831C512.501 188.658 512.745 188.524 513.012 188.43C513.279 188.337 513.562 188.29 513.86 188.29C514.36 188.29 514.818 188.415 515.232 188.665C515.647 188.912 515.98 189.254 516.23 189.692C516.48 190.126 516.605 190.625 516.605 191.188C516.605 191.727 516.484 192.222 516.242 192.67C516.001 193.116 515.661 193.472 515.224 193.736C514.789 193.997 514.278 194.125 513.69 194.119ZM513.69 193.182C514.048 193.182 514.369 193.092 514.653 192.913C514.94 192.734 515.166 192.494 515.33 192.193C515.498 191.892 515.582 191.557 515.582 191.188C515.582 190.827 515.501 190.499 515.339 190.203C515.18 189.905 514.96 189.668 514.678 189.491C514.4 189.315 514.082 189.227 513.724 189.227C513.454 189.227 513.203 189.281 512.97 189.389C512.737 189.494 512.532 189.639 512.356 189.824C512.183 190.009 512.046 190.22 511.947 190.459C511.847 190.695 511.798 190.943 511.798 191.205C511.798 191.551 511.879 191.875 512.041 192.176C512.205 192.477 512.43 192.72 512.714 192.905C513.001 193.089 513.326 193.182 513.69 193.182Z" fill="#EBEBF5" fill-opacity="0.18"/>
<path d="M523.843 194V193.233L526.724 190.08C527.062 189.71 527.34 189.389 527.559 189.116C527.778 188.841 527.939 188.582 528.045 188.341C528.153 188.097 528.206 187.841 528.206 187.574C528.206 187.267 528.133 187.001 527.985 186.777C527.84 186.553 527.641 186.379 527.388 186.257C527.135 186.135 526.851 186.074 526.536 186.074C526.201 186.074 525.908 186.143 525.658 186.283C525.411 186.419 525.219 186.611 525.083 186.858C524.949 187.105 524.883 187.395 524.883 187.727H523.877C523.877 187.216 523.995 186.767 524.231 186.381C524.466 185.994 524.787 185.693 525.194 185.477C525.603 185.261 526.062 185.153 526.57 185.153C527.081 185.153 527.535 185.261 527.93 185.477C528.324 185.693 528.634 185.984 528.858 186.351C529.083 186.717 529.195 187.125 529.195 187.574C529.195 187.895 529.137 188.209 529.02 188.516C528.907 188.82 528.708 189.159 528.424 189.534C528.143 189.906 527.752 190.361 527.252 190.898L525.292 192.994V193.062H529.349V194H523.843ZM531.381 194L535.285 186.278V186.21H530.785V185.273H536.376V186.261L532.489 194H531.381Z" fill="#EBEBF5" fill-opacity="0.18"/>
<path d="M543.573 194V193.233L546.454 190.08C546.792 189.71 547.07 189.389 547.289 189.116C547.508 188.841 547.67 188.582 547.775 188.341C547.883 188.097 547.937 187.841 547.937 187.574C547.937 187.267 547.863 187.001 547.715 186.777C547.57 186.553 547.372 186.379 547.119 186.257C546.866 186.135 546.582 186.074 546.267 186.074C545.931 186.074 545.639 186.143 545.389 186.283C545.142 186.419 544.95 186.611 544.813 186.858C544.68 187.105 544.613 187.395 544.613 187.727H543.607C543.607 187.216 543.725 186.767 543.961 186.381C544.197 185.994 544.518 185.693 544.924 185.477C545.333 185.261 545.792 185.153 546.301 185.153C546.812 185.153 547.265 185.261 547.66 185.477C548.055 185.693 548.365 185.984 548.589 186.351C548.813 186.717 548.926 187.125 548.926 187.574C548.926 187.895 548.867 188.209 548.751 188.516C548.637 188.82 548.438 189.159 548.154 189.534C547.873 189.906 547.482 190.361 546.982 190.898L545.022 192.994V193.062H549.079V194H543.573ZM553.634 194.119C553.049 194.119 552.532 194.016 552.083 193.808C551.637 193.598 551.289 193.31 551.039 192.943C550.789 192.574 550.666 192.153 550.669 191.682C550.666 191.312 550.738 190.972 550.886 190.659C551.034 190.344 551.235 190.081 551.491 189.871C551.749 189.658 552.038 189.523 552.356 189.466V189.415C551.938 189.307 551.606 189.072 551.359 188.712C551.112 188.348 550.99 187.935 550.992 187.472C550.99 187.028 551.102 186.632 551.329 186.283C551.556 185.933 551.869 185.658 552.267 185.456C552.667 185.254 553.123 185.153 553.634 185.153C554.14 185.153 554.592 185.254 554.99 185.456C555.387 185.658 555.7 185.933 555.927 186.283C556.157 186.632 556.274 187.028 556.276 187.472C556.274 187.935 556.147 188.348 555.897 188.712C555.65 189.072 555.322 189.307 554.913 189.415V189.466C555.228 189.523 555.512 189.658 555.765 189.871C556.018 190.081 556.22 190.344 556.37 190.659C556.521 190.972 556.597 191.312 556.6 191.682C556.597 192.153 556.47 192.574 556.217 192.943C555.967 193.31 555.619 193.598 555.173 193.808C554.73 194.016 554.217 194.119 553.634 194.119ZM553.634 193.182C554.029 193.182 554.37 193.118 554.657 192.99C554.944 192.862 555.166 192.682 555.322 192.449C555.478 192.216 555.558 191.943 555.561 191.631C555.558 191.301 555.472 191.01 555.305 190.757C555.137 190.504 554.909 190.305 554.619 190.161C554.332 190.016 554.004 189.943 553.634 189.943C553.262 189.943 552.93 190.016 552.637 190.161C552.347 190.305 552.119 190.504 551.951 190.757C551.786 191.01 551.705 191.301 551.708 191.631C551.705 191.943 551.781 192.216 551.934 192.449C552.09 192.682 552.313 192.862 552.603 192.99C552.893 193.118 553.237 193.182 553.634 193.182ZM553.634 189.04C553.947 189.04 554.224 188.977 554.465 188.852C554.71 188.727 554.901 188.553 555.041 188.328C555.18 188.104 555.251 187.841 555.254 187.54C555.251 187.244 555.181 186.987 555.045 186.768C554.909 186.547 554.72 186.376 554.478 186.257C554.237 186.135 553.955 186.074 553.634 186.074C553.308 186.074 553.022 186.135 552.778 186.257C552.534 186.376 552.345 186.547 552.211 186.768C552.078 186.987 552.012 187.244 552.015 187.54C552.012 187.841 552.079 188.104 552.215 188.328C552.355 188.553 552.546 188.727 552.791 188.852C553.035 188.977 553.316 189.04 553.634 189.04Z" fill="#EBEBF5" fill-opacity="0.18"/>
<path d="M563.526 194V193.233L566.407 190.08C566.745 189.71 567.024 189.389 567.242 189.116C567.461 188.841 567.623 188.582 567.728 188.341C567.836 188.097 567.89 187.841 567.89 187.574C567.89 187.267 567.816 187.001 567.669 186.777C567.524 186.553 567.325 186.379 567.072 186.257C566.819 186.135 566.535 186.074 566.22 186.074C565.884 186.074 565.592 186.143 565.342 186.283C565.095 186.419 564.903 186.611 564.767 186.858C564.633 187.105 564.566 187.395 564.566 187.727H563.561C563.561 187.216 563.678 186.767 563.914 186.381C564.15 185.994 564.471 185.693 564.877 185.477C565.286 185.261 565.745 185.153 566.254 185.153C566.765 185.153 567.218 185.261 567.613 185.477C568.008 185.693 568.318 185.984 568.542 186.351C568.767 186.717 568.879 187.125 568.879 187.574C568.879 187.895 568.82 188.209 568.704 188.516C568.59 188.82 568.392 189.159 568.107 189.534C567.826 189.906 567.436 190.361 566.936 190.898L564.975 192.994V193.062H569.032V194H563.526ZM573.57 185.153C573.928 185.156 574.286 185.224 574.644 185.358C575.002 185.491 575.329 185.713 575.624 186.023C575.92 186.33 576.157 186.749 576.336 187.28C576.515 187.811 576.605 188.477 576.605 189.278C576.605 190.054 576.531 190.743 576.383 191.345C576.238 191.945 576.028 192.45 575.752 192.862C575.48 193.274 575.147 193.587 574.755 193.8C574.366 194.013 573.926 194.119 573.434 194.119C572.945 194.119 572.509 194.023 572.126 193.83C571.745 193.634 571.433 193.362 571.188 193.016C570.947 192.666 570.792 192.261 570.724 191.801H571.764C571.857 192.202 572.044 192.533 572.322 192.794C572.603 193.053 572.974 193.182 573.434 193.182C574.107 193.182 574.639 192.888 575.028 192.3C575.42 191.712 575.616 190.881 575.616 189.807H575.548C575.389 190.045 575.2 190.251 574.981 190.425C574.762 190.598 574.519 190.732 574.252 190.825C573.985 190.919 573.701 190.966 573.4 190.966C572.9 190.966 572.441 190.842 572.024 190.595C571.609 190.345 571.276 190.003 571.026 189.568C570.779 189.131 570.656 188.631 570.656 188.068C570.656 187.534 570.775 187.045 571.014 186.602C571.255 186.156 571.593 185.801 572.028 185.537C572.465 185.273 572.98 185.145 573.57 185.153ZM573.57 186.091C573.213 186.091 572.89 186.18 572.603 186.359C572.319 186.536 572.093 186.774 571.926 187.075C571.761 187.374 571.678 187.705 571.678 188.068C571.678 188.432 571.758 188.763 571.917 189.061C572.079 189.357 572.299 189.592 572.578 189.768C572.859 189.942 573.178 190.028 573.536 190.028C573.806 190.028 574.058 189.976 574.291 189.871C574.524 189.763 574.727 189.616 574.9 189.432C575.076 189.244 575.214 189.033 575.313 188.797C575.413 188.558 575.463 188.31 575.463 188.051C575.463 187.71 575.38 187.391 575.215 187.092C575.053 186.794 574.829 186.553 574.542 186.368C574.258 186.183 573.934 186.091 573.57 186.091Z" fill="#EBEBF5" fill-opacity="0.18"/>
<path d="M586.282 194.119C585.719 194.119 585.218 194.023 584.778 193.83C584.34 193.636 583.992 193.368 583.734 193.024C583.478 192.678 583.339 192.276 583.316 191.818H584.39C584.413 192.099 584.509 192.342 584.68 192.547C584.85 192.749 585.073 192.905 585.349 193.016C585.624 193.126 585.93 193.182 586.265 193.182C586.64 193.182 586.972 193.116 587.262 192.986C587.552 192.855 587.779 192.673 587.944 192.44C588.109 192.207 588.191 191.938 588.191 191.631C588.191 191.31 588.112 191.027 587.952 190.783C587.793 190.536 587.56 190.342 587.254 190.203C586.947 190.064 586.572 189.994 586.129 189.994H585.43V189.057H586.129C586.475 189.057 586.779 188.994 587.04 188.869C587.305 188.744 587.511 188.568 587.658 188.341C587.809 188.114 587.884 187.847 587.884 187.54C587.884 187.244 587.819 186.987 587.688 186.768C587.558 186.55 587.373 186.379 587.134 186.257C586.898 186.135 586.62 186.074 586.299 186.074C585.998 186.074 585.714 186.129 585.447 186.24C585.183 186.348 584.967 186.506 584.799 186.713C584.631 186.918 584.54 187.165 584.526 187.455H583.504C583.521 186.997 583.658 186.597 583.917 186.253C584.175 185.906 584.513 185.636 584.931 185.443C585.352 185.25 585.813 185.153 586.316 185.153C586.856 185.153 587.319 185.263 587.705 185.482C588.092 185.697 588.388 185.983 588.596 186.338C588.803 186.693 588.907 187.077 588.907 187.489C588.907 187.98 588.778 188.399 588.519 188.746C588.263 189.092 587.915 189.332 587.475 189.466V189.534C588.026 189.625 588.457 189.859 588.766 190.237C589.076 190.612 589.231 191.077 589.231 191.631C589.231 192.105 589.102 192.531 588.843 192.909C588.587 193.284 588.238 193.58 587.795 193.795C587.352 194.011 586.847 194.119 586.282 194.119ZM593.82 194.119C593.178 194.119 592.631 193.945 592.18 193.595C591.728 193.243 591.383 192.733 591.144 192.065C590.906 191.395 590.786 190.585 590.786 189.636C590.786 188.693 590.906 187.888 591.144 187.22C591.386 186.55 591.732 186.038 592.184 185.686C592.638 185.331 593.184 185.153 593.82 185.153C594.457 185.153 595.001 185.331 595.452 185.686C595.907 186.038 596.254 186.55 596.492 187.22C596.734 187.888 596.854 188.693 596.854 189.636C596.854 190.585 596.735 191.395 596.496 192.065C596.258 192.733 595.913 193.243 595.461 193.595C595.009 193.945 594.462 194.119 593.82 194.119ZM593.82 193.182C594.457 193.182 594.951 192.875 595.303 192.261C595.656 191.648 595.832 190.773 595.832 189.636C595.832 188.881 595.751 188.237 595.589 187.706C595.43 187.175 595.2 186.77 594.898 186.491C594.6 186.213 594.241 186.074 593.82 186.074C593.19 186.074 592.697 186.385 592.342 187.007C591.987 187.626 591.809 188.503 591.809 189.636C591.809 190.392 591.888 191.034 592.048 191.562C592.207 192.091 592.435 192.493 592.734 192.768C593.035 193.044 593.397 193.182 593.82 193.182Z" fill="#EBEBF5" fill-opacity="0.18"/>
</svg>
