<svg width="162" height="80" viewBox="0 0 162 80" fill="none" xmlns="http://www.w3.org/2000/svg">
<g filter="url(#filter0_f_508_2416)">
<path fill-rule="evenodd" clip-rule="evenodd" d="M48.8529 10.6707C49.4354 10.186 49.5733 9.32828 49.1475 8.6792C48.6908 7.98305 47.7586 7.7905 47.0654 8.24911C46.7064 8.4866 46.4688 8.8137 46.3282 9.03204C46.1696 9.27828 46.0303 9.55369 45.9091 9.82395C45.6659 10.3664 45.439 11.0157 45.2404 11.6568C44.8423 12.9424 44.5109 14.3502 44.3608 15.1545C44.3234 15.3546 44.1275 16.1659 43.816 17.4241C40.6828 18.1646 37.0309 19.2819 32.7774 20.8517C31.9983 21.1393 31.5987 22.0067 31.8851 22.7892C32.1715 23.5717 33.0353 23.9728 33.8145 23.6853C37.3219 22.3908 40.3603 21.4303 42.9882 20.7415C42.5488 22.4938 42.0302 24.5541 41.4713 26.7742L41.463 26.8073C40.3489 31.2323 39.09 36.2325 38.0203 40.54C29.3475 40.5715 16.7899 40.5728 9.50433 40.5668C8.67419 40.5661 8.00068 41.2413 8 42.075C7.99932 42.9086 8.67172 43.585 9.50186 43.5856C16.5522 43.5915 28.6112 43.5905 37.2734 43.5614C37.1469 44.0758 37.0252 44.5727 36.9089 45.0491C36.7114 45.8588 37.2049 46.676 38.0112 46.8744C38.8175 47.0728 39.6312 46.5772 39.8288 45.7675C39.9992 45.0691 40.1815 44.3265 40.3732 43.5489C43.5569 43.5337 45.9728 43.5132 47.0202 43.4858C49.5084 43.4207 52.8683 43.0805 55.8122 42.0786C58.6873 41.1002 61.6304 39.3222 62.4437 36.0766C62.8723 34.366 62.4638 32.8462 61.5958 31.6174C60.9298 30.6747 60.0095 29.9196 59.0307 29.3227C60.7055 27.6089 62.1903 25.289 61.9366 22.7122C61.8074 21.4002 61.3299 19.9858 60.2005 18.8027C59.0728 17.6215 57.4229 16.8045 55.1915 16.4491C53.1189 16.1191 50.4645 16.1743 47.0751 16.7547C47.205 16.2164 47.2884 15.856 47.3155 15.7107C47.4445 15.0198 47.7479 13.7257 48.111 12.5533C48.2931 11.9654 48.4783 11.4467 48.6502 11.0636C48.7365 10.871 48.8056 10.7442 48.8524 10.6715L48.8529 10.6707ZM46.2803 19.9734C45.7891 21.9404 45.1623 24.43 44.4831 27.1275L44.4812 27.1354L44.3797 27.5383C43.3279 31.7161 42.1489 36.3988 41.1221 40.5264C43.9026 40.5118 45.9958 40.4927 46.9419 40.468C49.2826 40.4068 52.3058 40.0845 54.8474 39.2195C57.4579 38.3311 59.1028 37.038 59.5284 35.3399C59.7191 34.5787 59.5615 33.9553 59.1439 33.3641C58.6909 32.7229 57.916 32.1117 56.902 31.5827C56.7887 31.5236 56.674 31.4663 56.5583 31.4109C55.0399 32.4782 53.4651 33.2523 52.2973 33.5181C50.7898 33.8613 49.4849 33.828 48.4486 33.5238C47.4962 33.2444 46.4883 32.634 46.1328 31.5947C45.7081 30.3534 46.2204 29.1362 47.1781 28.348C48.0967 27.5919 49.4427 27.1715 51.0823 27.0873C52.3064 27.0244 54.2008 27.3229 56.0797 27.9657C56.166 27.8908 56.2518 27.8145 56.337 27.737C58.1021 26.1293 59.0844 24.4249 58.945 23.0093C58.8664 22.2116 58.5948 21.483 58.0304 20.8918C57.4642 20.2987 56.4757 19.7102 54.7207 19.4307C52.7983 19.1246 50.0759 19.2086 46.2803 19.9734ZM48.8747 10.6386C48.8802 10.6311 48.883 10.6281 48.883 10.6281C48.883 10.6281 48.8803 10.6321 48.8747 10.6386ZM51.2359 30.1022C51.5864 30.0842 52.0773 30.1185 52.6499 30.2079C52.2512 30.3884 51.9031 30.5125 51.6327 30.574C50.5166 30.828 49.7421 30.7583 49.2918 30.6262C49.2595 30.6167 49.2296 30.6072 49.2019 30.5978C49.5074 30.4028 50.1311 30.1589 51.2359 30.1022Z" fill="url(#paint0_linear_508_2416)"/>
<path d="M80.1607 29.8435C80.5258 30.5922 80.2174 31.4963 79.4718 31.863C79.4718 31.863 79.4716 31.8633 79.469 31.8654C79.4437 31.8845 79.2679 32.0174 79.0219 32.3813C78.7771 32.7437 78.5526 33.2038 78.4105 33.6687C78.2566 34.1725 77.8968 35.7194 77.6979 37.5968C77.4974 39.4904 77.4808 41.5455 77.9014 43.1464C78.1132 43.9524 77.6342 44.7783 76.8316 44.991C76.0289 45.2037 75.2065 44.7227 74.9947 43.9166C74.7549 43.004 74.6288 42.0259 74.5798 41.047C73.7466 41.5678 72.8154 42.0916 71.8657 42.4875C70.021 43.2564 67.5003 43.7885 65.4892 42.0738C64.359 41.1101 64.074 39.6451 64.0664 38.398C64.0584 37.1034 64.3429 35.6775 64.7321 34.3524C65.1254 33.013 65.6495 31.6973 66.1756 30.5987C66.6848 29.5354 67.2519 28.5571 67.7643 27.9711C68.3121 27.3447 69.2618 27.2828 69.8855 27.8329C70.5093 28.3829 70.5709 29.3366 70.0232 29.963C69.7897 30.2301 69.365 30.9042 68.8848 31.907C68.4215 32.8745 67.9585 34.0385 67.6155 35.2063C67.2683 36.3885 67.0671 37.4975 67.0725 38.3795C67.0782 39.309 67.3055 39.6622 67.4349 39.7726C68.0757 40.3189 69.0978 40.3727 70.7132 39.6993C72.1341 39.107 73.5484 38.1395 74.7016 37.3449L74.7086 37.2776C74.9244 35.2401 75.3176 33.4998 75.5366 32.783C75.7676 32.0273 76.1232 31.2947 76.5345 30.6861C76.9185 30.1178 77.4644 29.4888 78.1497 29.1518C78.8952 28.7851 79.7956 29.0948 80.1607 29.8435Z" fill="url(#paint1_linear_508_2416)"/>
<path fill-rule="evenodd" clip-rule="evenodd" d="M92.9071 28.1742C91.0179 26.1919 85.7945 26.3419 82.462 33.1932C81.0605 36.0745 80.7673 38.4403 81.2213 40.2574C81.6709 42.0569 82.8814 43.3125 84.2849 43.6214C85.6728 43.927 87.0343 43.5851 88.2073 42.952C88.0481 43.6387 87.897 44.3271 87.7593 45.0055C87.4674 45.1994 87.1752 45.3945 86.8835 45.5902C82.2565 48.6938 77.5595 52.0742 75.1684 54.1469C72.229 56.6947 70.5861 59.9806 70.2319 63.0648C69.8812 66.1186 70.7986 69.1945 73.2893 70.8869C75.9186 72.6735 78.8222 72.069 81.0732 70.7579C83.3118 69.4539 85.2136 67.3062 86.2345 65.2989C88.6099 60.6281 89.7115 54.3246 90.0761 49.7193C90.1454 48.8439 90.2841 47.8637 90.4691 46.8289C93.8654 44.5989 97.0273 42.6542 99.0267 41.6079C99.0711 41.6956 99.1178 41.7822 99.1669 41.8674C99.708 42.8074 100.564 43.6198 101.82 43.9136C105.78 44.8402 110.752 43.004 113.501 38.2324C113.916 37.5108 113.671 36.5875 112.952 36.1701C112.234 35.7527 111.314 35.9993 110.899 36.721C108.779 40.4009 105.109 41.5835 102.502 40.9735C102.229 40.9095 101.993 40.7444 101.769 40.3565C101.739 40.3036 101.709 40.2475 101.681 40.1884C102.238 39.9128 102.753 39.6771 103.246 39.4512C103.502 39.3339 103.752 39.2192 103.999 39.103C104.993 38.6362 105.966 38.1337 106.829 37.3499C108.515 35.8169 109.802 33.8984 110.192 31.9956C110.391 31.027 110.368 29.9991 109.964 29.0418C109.553 28.0652 108.802 27.2947 107.784 26.7782C105.327 25.5312 102.973 27.0681 101.564 28.5004C100.074 30.0152 98.8811 32.1195 98.523 33.7141C98.2809 34.7922 98.0484 36.7444 98.2355 38.6268C96.5977 39.4337 94.1159 40.9095 91.3673 42.6575C91.9451 40.2863 92.6009 37.9625 93.0986 36.1989L93.099 36.1975C93.2133 35.7927 93.3192 35.4174 93.4139 35.0779C94.1385 32.4801 95.2417 30.6189 96.0759 29.2112C96.2253 28.9592 96.3664 28.7211 96.4948 28.4965C96.9082 27.7736 96.6597 26.851 95.9398 26.4359C95.2199 26.0208 94.3012 26.2704 93.8879 26.9933C93.7807 27.1808 93.6556 27.3909 93.5171 27.6236L93.516 27.6254L93.5153 27.6266C93.379 27.8558 93.2296 28.1068 93.0714 28.3795C93.0235 28.3076 92.9687 28.2389 92.9071 28.1742ZM90.209 35.3645C90.0448 35.9452 89.8599 36.5991 89.6639 37.3051C89.6027 37.3747 89.5471 37.4509 89.498 37.5335C88.8652 38.5996 88.0235 39.5016 87.1553 40.071C86.2767 40.6473 85.5101 40.8006 84.9285 40.6726C84.8586 40.6572 84.3682 40.4477 84.1372 39.5228C83.9105 38.6156 83.957 36.9979 85.1632 34.5181C87.6505 29.4045 90.159 30.1207 90.6581 30.2632C90.7379 30.286 90.7663 30.2941 90.7353 30.2615C91.0339 30.5749 91.4348 30.7309 91.8351 30.7272C91.3583 31.7487 90.8917 32.9282 90.5191 34.2635C90.428 34.5902 90.3235 34.9596 90.209 35.3645ZM87.1154 49.0724C83.0101 51.8692 79.1391 54.6929 77.1327 56.4321C74.7332 58.512 73.4815 61.1187 73.2183 63.4107C72.9516 65.7332 73.6942 67.517 74.974 68.3867C76.2865 69.2785 77.8677 69.1351 79.5648 68.1465C81.2742 67.1508 82.7835 65.4471 83.5572 63.9259C85.6681 59.7753 86.7268 53.9342 87.0794 49.4801C87.09 49.3463 87.102 49.2103 87.1154 49.0724ZM102.051 36.6798C101.777 36.8053 101.484 36.9395 101.174 37.0853C101.183 36.002 101.32 34.983 101.456 34.3782C101.667 33.4344 102.529 31.8148 103.702 30.6221C104.957 29.3469 105.876 29.1925 106.428 29.4725C106.883 29.7036 107.092 29.9708 107.196 30.2177C107.308 30.4838 107.355 30.8651 107.248 31.3868C107.027 32.4645 106.198 33.8512 104.811 35.1118C104.303 35.5738 103.68 35.9204 102.725 36.3685C102.516 36.4669 102.291 36.57 102.051 36.6798Z" fill="url(#paint2_linear_508_2416)"/>
<path d="M126.505 8.78791C127.218 9.21472 127.451 10.1412 127.026 10.8573C125.282 13.7954 122.824 19.4206 121.497 23.399L152.497 23.3989C153.327 23.3989 154 24.0747 154 24.9084C154 25.742 153.327 26.4178 152.497 26.4178L120.642 26.4178C120.166 28.3947 119.352 31.8752 119.048 35.0901C118.875 36.9093 118.881 38.5088 119.137 39.6569C119.4 40.8404 119.795 41.0619 120.033 41.1142C120.433 41.2021 121.161 41.0028 122.255 40.1632C123.269 39.3847 124.236 38.3387 125.024 37.478C125.586 36.8642 126.537 36.824 127.148 37.3882C127.759 37.9524 127.799 38.9072 127.237 39.521C126.473 40.3558 125.336 41.5976 124.081 42.5614C122.905 43.4641 121.2 44.4615 119.389 44.063C117.417 43.629 116.555 41.8976 116.203 40.3159C115.843 38.6986 115.873 36.7205 116.055 34.804C116.345 31.7426 117.059 28.4941 117.551 26.4178L112.772 26.4178C111.942 26.4178 111.269 25.742 111.269 24.9084C111.269 24.0748 111.942 23.399 112.772 23.399L118.34 23.399C119.656 19.1313 122.459 12.6556 124.444 9.31167C124.869 8.59559 125.791 8.3611 126.505 8.78791Z" fill="url(#paint3_linear_508_2416)"/>
</g>
<path fill-rule="evenodd" clip-rule="evenodd" d="M48.8529 10.6707C49.4354 10.186 49.5733 9.32828 49.1475 8.6792C48.6908 7.98305 47.7586 7.7905 47.0654 8.24911C46.7064 8.4866 46.4688 8.8137 46.3282 9.03204C46.1696 9.27828 46.0303 9.55369 45.9091 9.82395C45.6659 10.3664 45.439 11.0157 45.2404 11.6568C44.8423 12.9424 44.5109 14.3502 44.3608 15.1545C44.3234 15.3546 44.1275 16.1659 43.816 17.4241C40.6828 18.1646 37.0309 19.2819 32.7774 20.8517C31.9983 21.1393 31.5987 22.0067 31.8851 22.7892C32.1715 23.5717 33.0353 23.9728 33.8145 23.6853C37.3219 22.3908 40.3603 21.4303 42.9882 20.7415C42.5488 22.4938 42.0302 24.5541 41.4713 26.7742L41.463 26.8073C40.3489 31.2323 39.09 36.2325 38.0203 40.54C29.3475 40.5715 16.7899 40.5728 9.50433 40.5668C8.67419 40.5661 8.00068 41.2413 8 42.075C7.99932 42.9086 8.67172 43.585 9.50186 43.5856C16.5522 43.5915 28.6112 43.5905 37.2734 43.5614C37.1469 44.0758 37.0252 44.5727 36.9089 45.0491C36.7114 45.8588 37.2049 46.676 38.0112 46.8744C38.8175 47.0728 39.6312 46.5772 39.8288 45.7675C39.9992 45.0691 40.1815 44.3265 40.3732 43.5489C43.5569 43.5337 45.9728 43.5132 47.0202 43.4858C49.5084 43.4207 52.8683 43.0805 55.8122 42.0786C58.6873 41.1002 61.6304 39.3222 62.4437 36.0766C62.8723 34.366 62.4638 32.8462 61.5958 31.6174C60.9298 30.6747 60.0095 29.9196 59.0307 29.3227C60.7055 27.6089 62.1903 25.289 61.9366 22.7122C61.8074 21.4002 61.3299 19.9858 60.2005 18.8027C59.0728 17.6215 57.4229 16.8045 55.1915 16.4491C53.1189 16.1191 50.4645 16.1743 47.0751 16.7547C47.205 16.2164 47.2884 15.856 47.3155 15.7107C47.4445 15.0198 47.7479 13.7257 48.111 12.5533C48.2931 11.9654 48.4783 11.4467 48.6502 11.0636C48.7365 10.871 48.8056 10.7442 48.8524 10.6715L48.8529 10.6707ZM46.2803 19.9734C45.7891 21.9404 45.1623 24.43 44.4831 27.1275L44.4812 27.1354L44.3797 27.5383C43.3279 31.7161 42.1489 36.3988 41.1221 40.5264C43.9026 40.5118 45.9958 40.4927 46.9419 40.468C49.2826 40.4068 52.3058 40.0845 54.8474 39.2195C57.4579 38.3311 59.1028 37.038 59.5284 35.3399C59.7191 34.5787 59.5615 33.9553 59.1439 33.3641C58.6909 32.7229 57.916 32.1117 56.902 31.5827C56.7887 31.5236 56.674 31.4663 56.5583 31.4109C55.0399 32.4782 53.4651 33.2523 52.2973 33.5181C50.7898 33.8613 49.4849 33.828 48.4486 33.5238C47.4962 33.2444 46.4883 32.634 46.1328 31.5947C45.7081 30.3534 46.2204 29.1362 47.1781 28.348C48.0967 27.5919 49.4427 27.1715 51.0823 27.0873C52.3064 27.0244 54.2008 27.3229 56.0797 27.9657C56.166 27.8908 56.2518 27.8145 56.337 27.737C58.1021 26.1293 59.0844 24.4249 58.945 23.0093C58.8664 22.2116 58.5948 21.483 58.0304 20.8918C57.4642 20.2987 56.4757 19.7102 54.7207 19.4307C52.7983 19.1246 50.0759 19.2086 46.2803 19.9734ZM48.8747 10.6386C48.8802 10.6311 48.883 10.6281 48.883 10.6281C48.883 10.6281 48.8803 10.6321 48.8747 10.6386ZM51.2359 30.1022C51.5864 30.0842 52.0773 30.1185 52.6499 30.2079C52.2512 30.3884 51.9031 30.5125 51.6327 30.574C50.5166 30.828 49.7421 30.7583 49.2918 30.6262C49.2595 30.6167 49.2296 30.6072 49.2019 30.5978C49.5074 30.4028 50.1311 30.1589 51.2359 30.1022Z" fill="url(#paint4_linear_508_2416)"/>
<path d="M80.1607 29.8435C80.5258 30.5922 80.2174 31.4963 79.4718 31.863C79.4718 31.863 79.4716 31.8633 79.469 31.8654C79.4437 31.8845 79.2679 32.0174 79.0219 32.3813C78.7771 32.7437 78.5526 33.2038 78.4105 33.6687C78.2566 34.1725 77.8968 35.7194 77.6979 37.5968C77.4974 39.4904 77.4808 41.5455 77.9014 43.1464C78.1132 43.9524 77.6342 44.7783 76.8316 44.991C76.0289 45.2037 75.2065 44.7227 74.9947 43.9166C74.7549 43.004 74.6288 42.0259 74.5798 41.047C73.7466 41.5678 72.8154 42.0916 71.8657 42.4875C70.021 43.2564 67.5003 43.7885 65.4892 42.0738C64.359 41.1101 64.074 39.6451 64.0664 38.398C64.0584 37.1034 64.3429 35.6775 64.7321 34.3524C65.1254 33.013 65.6495 31.6973 66.1756 30.5987C66.6848 29.5354 67.2519 28.5571 67.7643 27.9711C68.3121 27.3447 69.2618 27.2828 69.8855 27.8329C70.5093 28.3829 70.5709 29.3366 70.0232 29.963C69.7897 30.2301 69.365 30.9042 68.8848 31.907C68.4215 32.8745 67.9585 34.0385 67.6155 35.2063C67.2683 36.3885 67.0671 37.4975 67.0725 38.3795C67.0782 39.309 67.3055 39.6622 67.4349 39.7726C68.0757 40.3189 69.0978 40.3727 70.7132 39.6993C72.1341 39.107 73.5484 38.1395 74.7016 37.3449L74.7086 37.2776C74.9244 35.2401 75.3176 33.4998 75.5366 32.783C75.7676 32.0273 76.1232 31.2947 76.5345 30.6861C76.9185 30.1178 77.4644 29.4888 78.1497 29.1518C78.8952 28.7851 79.7956 29.0948 80.1607 29.8435Z" fill="url(#paint5_linear_508_2416)"/>
<path fill-rule="evenodd" clip-rule="evenodd" d="M92.9071 28.1742C91.0179 26.1919 85.7945 26.3419 82.462 33.1932C81.0605 36.0745 80.7673 38.4403 81.2213 40.2574C81.6709 42.0569 82.8814 43.3125 84.2849 43.6214C85.6728 43.927 87.0343 43.5851 88.2073 42.952C88.0481 43.6387 87.897 44.3271 87.7593 45.0055C87.4674 45.1994 87.1752 45.3945 86.8835 45.5902C82.2565 48.6938 77.5595 52.0742 75.1684 54.1469C72.229 56.6947 70.5861 59.9806 70.2319 63.0648C69.8812 66.1186 70.7986 69.1945 73.2893 70.8869C75.9186 72.6735 78.8222 72.069 81.0732 70.7579C83.3118 69.4539 85.2136 67.3062 86.2345 65.2989C88.6099 60.6281 89.7115 54.3246 90.0761 49.7193C90.1454 48.8439 90.2841 47.8637 90.4691 46.8289C93.8654 44.5989 97.0273 42.6542 99.0267 41.6079C99.0711 41.6956 99.1178 41.7822 99.1669 41.8674C99.708 42.8074 100.564 43.6198 101.82 43.9136C105.78 44.8402 110.752 43.004 113.501 38.2324C113.916 37.5108 113.671 36.5875 112.952 36.1701C112.234 35.7527 111.314 35.9993 110.899 36.721C108.779 40.4009 105.109 41.5835 102.502 40.9735C102.229 40.9095 101.993 40.7444 101.769 40.3565C101.739 40.3036 101.709 40.2475 101.681 40.1884C102.238 39.9128 102.753 39.6771 103.246 39.4512C103.502 39.3339 103.752 39.2192 103.999 39.103C104.993 38.6362 105.966 38.1337 106.829 37.3499C108.515 35.8169 109.802 33.8984 110.192 31.9956C110.391 31.027 110.368 29.9991 109.964 29.0418C109.553 28.0652 108.802 27.2947 107.784 26.7782C105.327 25.5312 102.973 27.0681 101.564 28.5004C100.074 30.0152 98.8811 32.1195 98.523 33.7141C98.2809 34.7922 98.0484 36.7444 98.2355 38.6268C96.5977 39.4337 94.1159 40.9095 91.3673 42.6575C91.9451 40.2863 92.6009 37.9625 93.0986 36.1989L93.099 36.1975C93.2133 35.7927 93.3192 35.4174 93.4139 35.0779C94.1385 32.4801 95.2417 30.6189 96.0759 29.2112C96.2253 28.9592 96.3664 28.7211 96.4948 28.4965C96.9082 27.7736 96.6597 26.851 95.9398 26.4359C95.2199 26.0208 94.3012 26.2704 93.8879 26.9933C93.7807 27.1808 93.6556 27.3909 93.5171 27.6236L93.516 27.6254L93.5153 27.6266C93.379 27.8558 93.2296 28.1068 93.0714 28.3795C93.0235 28.3076 92.9687 28.2389 92.9071 28.1742ZM90.209 35.3645C90.0448 35.9452 89.8599 36.5991 89.6639 37.3051C89.6027 37.3747 89.5471 37.4509 89.498 37.5335C88.8652 38.5996 88.0235 39.5016 87.1553 40.071C86.2767 40.6473 85.5101 40.8006 84.9285 40.6726C84.8586 40.6572 84.3682 40.4477 84.1372 39.5228C83.9105 38.6156 83.957 36.9979 85.1632 34.5181C87.6505 29.4045 90.159 30.1207 90.6581 30.2632C90.7379 30.286 90.7663 30.2941 90.7353 30.2615C91.0339 30.5749 91.4348 30.7309 91.8351 30.7272C91.3583 31.7487 90.8917 32.9282 90.5191 34.2635C90.428 34.5902 90.3235 34.9596 90.209 35.3645ZM87.1154 49.0724C83.0101 51.8692 79.1391 54.6929 77.1327 56.4321C74.7332 58.512 73.4815 61.1187 73.2183 63.4107C72.9516 65.7332 73.6942 67.517 74.974 68.3867C76.2865 69.2785 77.8677 69.1351 79.5648 68.1465C81.2742 67.1508 82.7835 65.4471 83.5572 63.9259C85.6681 59.7753 86.7268 53.9342 87.0794 49.4801C87.09 49.3463 87.102 49.2103 87.1154 49.0724ZM102.051 36.6798C101.777 36.8053 101.484 36.9395 101.174 37.0853C101.183 36.002 101.32 34.983 101.456 34.3782C101.667 33.4344 102.529 31.8148 103.702 30.6221C104.957 29.3469 105.876 29.1925 106.428 29.4725C106.883 29.7036 107.092 29.9708 107.196 30.2177C107.308 30.4838 107.355 30.8651 107.248 31.3868C107.027 32.4645 106.198 33.8512 104.811 35.1118C104.303 35.5738 103.68 35.9204 102.725 36.3685C102.516 36.4669 102.291 36.57 102.051 36.6798Z" fill="url(#paint6_linear_508_2416)"/>
<path d="M126.505 8.78791C127.218 9.21472 127.451 10.1412 127.026 10.8573C125.282 13.7954 122.824 19.4206 121.497 23.399L152.497 23.3989C153.327 23.3989 154 24.0747 154 24.9084C154 25.742 153.327 26.4178 152.497 26.4178L120.642 26.4178C120.166 28.3947 119.352 31.8752 119.048 35.0901C118.875 36.9093 118.881 38.5088 119.137 39.6569C119.4 40.8404 119.795 41.0619 120.033 41.1142C120.433 41.2021 121.161 41.0028 122.255 40.1632C123.269 39.3847 124.236 38.3387 125.024 37.478C125.586 36.8642 126.537 36.824 127.148 37.3882C127.759 37.9524 127.799 38.9072 127.237 39.521C126.473 40.3558 125.336 41.5976 124.081 42.5614C122.905 43.4641 121.2 44.4615 119.389 44.063C117.417 43.629 116.555 41.8976 116.203 40.3159C115.843 38.6986 115.873 36.7205 116.055 34.804C116.345 31.7426 117.059 28.4941 117.551 26.4178L112.772 26.4178C111.942 26.4178 111.269 25.742 111.269 24.9084C111.269 24.0748 111.942 23.399 112.772 23.399L118.34 23.399C119.656 19.1313 122.459 12.6556 124.444 9.31167C124.869 8.59559 125.791 8.3611 126.505 8.78791Z" fill="url(#paint7_linear_508_2416)"/>
<defs>
<filter id="filter0_f_508_2416" x="0" y="0" width="162" height="80" filterUnits="userSpaceOnUse" color-interpolation-filters="sRGB">
<feFlood flood-opacity="0" result="BackgroundImageFix"/>
<feBlend mode="normal" in="SourceGraphic" in2="BackgroundImageFix" result="shape"/>
<feGaussianBlur stdDeviation="4" result="effect1_foregroundBlur_508_2416"/>
</filter>
<linearGradient id="paint0_linear_508_2416" x1="50.8478" y1="21.6" x2="96.3598" y2="57.2376" gradientUnits="userSpaceOnUse">
<stop stop-color="#FECA62"/>
<stop offset="1" stop-color="#FA4169"/>
</linearGradient>
<linearGradient id="paint1_linear_508_2416" x1="50.8478" y1="21.6" x2="96.3598" y2="57.2376" gradientUnits="userSpaceOnUse">
<stop stop-color="#FECA62"/>
<stop offset="1" stop-color="#FA4169"/>
</linearGradient>
<linearGradient id="paint2_linear_508_2416" x1="50.8478" y1="21.6" x2="96.3598" y2="57.2376" gradientUnits="userSpaceOnUse">
<stop stop-color="#FECA62"/>
<stop offset="1" stop-color="#FA4169"/>
</linearGradient>
<linearGradient id="paint3_linear_508_2416" x1="50.8478" y1="21.6" x2="96.3598" y2="57.2376" gradientUnits="userSpaceOnUse">
<stop stop-color="#FECA62"/>
<stop offset="1" stop-color="#FA4169"/>
</linearGradient>
<linearGradient id="paint4_linear_508_2416" x1="50.8478" y1="21.6" x2="96.3598" y2="57.2376" gradientUnits="userSpaceOnUse">
<stop stop-color="#FECA62"/>
<stop offset="1" stop-color="#FA4169"/>
</linearGradient>
<linearGradient id="paint5_linear_508_2416" x1="50.8478" y1="21.6" x2="96.3598" y2="57.2376" gradientUnits="userSpaceOnUse">
<stop stop-color="#FECA62"/>
<stop offset="1" stop-color="#FA4169"/>
</linearGradient>
<linearGradient id="paint6_linear_508_2416" x1="50.8478" y1="21.6" x2="96.3598" y2="57.2376" gradientUnits="userSpaceOnUse">
<stop stop-color="#FECA62"/>
<stop offset="1" stop-color="#FA4169"/>
</linearGradient>
<linearGradient id="paint7_linear_508_2416" x1="50.8478" y1="21.6" x2="96.3598" y2="57.2376" gradientUnits="userSpaceOnUse">
<stop stop-color="#FECA62"/>
<stop offset="1" stop-color="#FA4169"/>
</linearGradient>
</defs>
</svg>
